<svg xmlns="http://www.w3.org/2000/svg" viewBox="0 0 2525.53 1419.36"><defs><style>.cls-1{fill:#d2e0ff;}.cls-2{fill:#8c9df4;}.cls-3{fill:#bbd0ff;}.cls-4{fill:#1c468a;}.cls-5{fill:#ebf3fa;}.cls-6{fill:#7c9af2;}.cls-7{fill:#d66741;}.cls-8{fill:#f77d48;}.cls-9{fill:#ffa561;}.cls-10{fill:#e9f3ff;}.cls-11{fill:#243f66;}.cls-12,.cls-22{fill:#e28140;}.cls-13{fill:#ffb27d;}.cls-14{fill:#ed975d;}.cls-15{fill:#163560;}.cls-16{fill:#fff;}.cls-17{fill:#6980e2;}.cls-18{fill:#4c62bf;}.cls-19{fill:#ed985f;}.cls-20{fill:#233862;}.cls-21{fill:#2b478b;}.cls-22{opacity:0.5;}.cls-23{fill:#ed8d4c;}.cls-24{fill:#a8d29f;}</style></defs><title>big_book</title><g id="Layer_2" data-name="Layer 2"><g id="_Layer_" data-name="&lt;Layer&gt;"><path class="cls-1" d="M130.28,1413.09l-.2-.42a2.23,2.23,0,0,1-.21-.63c-.8-1.69-324-476.9,178.45-807.71,196.59-129.44-12.31-214.88,144-359C632,79.77,828.06,263,1027.85,187.86c35.29-13.26,70.71-34.59,106.17-67.33,35.06-32.32,75.55-57.16,119.67-75.78,60.14-25.3,125.37-38.5,191.88-43,223.22-15,474.43,69.35,604.07,192.64,26.1,24.83,144.78,153.28,51.24,329.84-59.08,111.48,188.37,217.95,276.31,345.25,149,215.66,101,384.74,51.72,474.78-6.25,11.45-12.52,21.61-18.41,30.43-17.33,25.94-31.35,40.29-31.85,41.34C2378.65,1416,130.89,1414.79,130.28,1413.09Z"/><path class="cls-2" d="M1678.79,643.75s53.57-227,234.28-252c0,0,35.17-4.32,46.87,34.4s-58.2,39-101.41,54.57S1714.57,562.3,1678.79,643.75Z"/><path class="cls-2" d="M1674.68,601.26s-18.79-188.08,113.09-254.82c0,0,25.8-12.58,45,14s-34.32,45.22-63.32,68.53S1680.63,529.42,1674.68,601.26Z"/><path class="cls-3" d="M1526,622.36s128-36.28,95.79-134.67c0,0-29.58-62.75-71.51-87.08,0,0-6.45,133.72-31.26,131S1537,383.11,1537,383.11s-105.28-85.59-153-92.21c0,0,44,142.56,20.58,133.8s-76-155-76-155S1212,218,1175.17,285.63s-13.83,111.27,3.16,120.1,133.27,35,126.67,49.32-90.64,19.74-131.07-4.23c0,0,19.8,130.43,84.47,139.5s93.58-25.41,133.44-19.08,66,23.7,43.86,29.57-86.64-17-124.67,2.3S1243.46,632.9,1299.3,659s163,43.67,194.88,3.54Z"/><path class="cls-3" d="M1225.48,321.5S1517.2,499.32,1526,622.36c0,0-13.72,50.83,3.88,117.09L1524.52,762s-14.79-84.68-30.34-99.53C1494.18,662.5,1588.64,580,1225.48,321.5Z"/><path class="cls-3" d="M1529.91,739.45s31.09,85.67-18.21,169.16L1500,902.25s35.86-96.36,22.27-152.38S1529.91,739.45,1529.91,739.45Z"/><path class="cls-2" d="M546.45,996.37S589.33,880.59,499.62,858c0,0-62.12-7.46-102.74,13,0,0,94.64,69.28,79.16,87s-99.25-85.2-99.25-85.2S256.8,912.55,226,946c0,0,128.5,34.83,109.38,48.56s-155-16.18-155-16.18-101.22,64.66-71.6,125.46,74.16,64.15,89.87,55.34,98-85.53,105-73.56-34.73,79.11-74.27,98.64c0,0,106.48,47.54,148.25,2.23s32.17-84.1,58.46-111.68,53.2-39.26,45.51-19.47-59.54,58.36-66,96.87-14.83,66.24,34.62,35.88,120.58-104.21,108.41-148Z"/><path class="cls-2" d="M162.43,1082.49s288.92-138.53,384-86.12c0,0,31.51,39,12.16,43.78C558.61,1040.15,549.38,927.9,162.43,1082.49Z"/><rect class="cls-4" x="437.87" y="521.93" width="1524.79" height="890.73"/><path class="cls-5" d="M1211.32,1415.83V549.16S1023,458.78,774.21,523.84s-293.83,25.32-293.83,25.32v863.5Z"/><path class="cls-5" d="M1209,1415.83V549.16s188.31-90.38,437.1-25.32S1940,549.16,1940,549.16v863.5Z"/><polygon class="cls-6" points="1471.89 703.87 1487.21 705.87 1476.3 716.81 1479.14 732 1465.36 725.01 1451.79 732.4 1454.18 717.14 1442.96 706.52 1458.21 704.07 1464.85 690.12 1471.89 703.87"/><polygon class="cls-6" points="1531.33 703.87 1546.65 705.87 1535.74 716.81 1538.58 732 1524.8 725.01 1511.23 732.4 1513.62 717.14 1502.4 706.52 1517.65 704.07 1524.29 690.12 1531.33 703.87"/><polygon class="cls-6" points="1590.77 703.87 1606.09 705.87 1595.18 716.81 1598.02 732 1584.24 725.01 1570.67 732.4 1573.06 717.14 1561.84 706.52 1577.09 704.07 1583.72 690.12 1590.77 703.87"/><polygon class="cls-6" points="1650.2 703.87 1665.52 705.87 1654.62 716.81 1657.46 732 1643.68 725.01 1630.11 732.4 1632.5 717.14 1621.28 706.52 1636.53 704.07 1643.16 690.12 1650.2 703.87"/><polygon class="cls-6" points="1709.64 703.87 1724.96 705.87 1714.06 716.81 1716.9 732 1703.12 725.01 1689.55 732.4 1691.94 717.14 1680.71 706.52 1695.97 704.07 1702.6 690.12 1709.64 703.87"/><polygon class="cls-6" points="1471.89 1040.03 1487.21 1042.03 1476.3 1052.98 1479.14 1068.16 1465.36 1061.18 1451.79 1068.57 1454.18 1053.3 1442.96 1042.68 1458.21 1040.23 1464.85 1026.28 1471.89 1040.03"/><polygon class="cls-6" points="1531.33 1040.03 1546.65 1042.03 1535.74 1052.98 1538.58 1068.16 1524.8 1061.18 1511.23 1068.57 1513.62 1053.3 1502.4 1042.68 1517.65 1040.23 1524.29 1026.28 1531.33 1040.03"/><polygon class="cls-6" points="1590.77 1040.03 1606.09 1042.03 1595.18 1052.98 1598.02 1068.16 1584.24 1061.18 1570.67 1068.57 1573.06 1053.3 1561.84 1042.68 1577.09 1040.23 1583.72 1026.28 1590.77 1040.03"/><polygon class="cls-6" points="1650.2 1040.03 1665.52 1042.03 1654.62 1052.98 1657.46 1068.16 1643.68 1061.18 1630.11 1068.57 1632.5 1053.3 1621.28 1042.68 1636.53 1040.23 1643.16 1026.28 1650.2 1040.03"/><polygon class="cls-6" points="1709.64 1040.03 1724.96 1042.03 1714.06 1052.98 1716.9 1068.16 1703.12 1061.18 1689.55 1068.57 1691.94 1053.3 1680.71 1042.68 1695.97 1040.23 1702.6 1026.28 1709.64 1040.03"/><rect class="cls-6" x="1437.66" y="785.87" width="292.6" height="10.05"/><rect class="cls-6" x="1396.62" y="866.25" width="119.92" height="10.05"/><rect class="cls-6" x="1542.92" y="866.25" width="95.25" height="10.05"/><rect class="cls-6" x="1654.97" y="866.25" width="116.33" height="10.05"/><rect class="cls-6" x="1377.7" y="826.06" width="187.89" height="10.05"/><rect class="cls-6" x="1602.33" y="826.06" width="187.89" height="10.05"/><rect class="cls-6" x="1437.66" y="903.56" width="292.6" height="10.05"/><rect class="cls-6" x="1396.62" y="1118.08" width="119.92" height="10.05"/><rect class="cls-6" x="1542.92" y="1118.08" width="95.25" height="10.05"/><rect class="cls-6" x="1654.97" y="1118.08" width="116.33" height="10.05"/><rect class="cls-6" x="1437.66" y="1155.4" width="292.6" height="10.05"/><rect class="cls-6" x="1396.62" y="1232.9" width="119.92" height="10.05"/><rect class="cls-6" x="1542.92" y="1232.9" width="95.25" height="10.05"/><rect class="cls-6" x="1654.97" y="1232.9" width="116.33" height="10.05"/><rect class="cls-6" x="1377.7" y="1192.71" width="187.89" height="10.05"/><rect class="cls-6" x="1602.33" y="1192.71" width="187.89" height="10.05"/><polygon class="cls-6" points="733.77 987.86 749.09 989.86 738.19 1000.8 741.03 1015.99 727.25 1009 713.68 1016.39 716.07 1001.13 704.85 990.51 720.1 988.06 726.73 974.11 733.77 987.86"/><polygon class="cls-6" points="793.21 987.86 808.53 989.86 797.63 1000.8 800.47 1015.99 786.69 1009 773.12 1016.39 775.51 1001.13 764.28 990.51 779.54 988.06 786.17 974.11 793.21 987.86"/><polygon class="cls-6" points="852.65 987.86 867.97 989.86 857.07 1000.8 859.9 1015.99 846.13 1009 832.56 1016.39 834.94 1001.13 823.72 990.51 838.98 988.06 845.61 974.11 852.65 987.86"/><polygon class="cls-6" points="912.09 987.86 927.41 989.86 916.51 1000.8 919.34 1015.99 905.56 1009 892 1016.39 894.38 1001.13 883.16 990.51 898.42 988.06 905.05 974.11 912.09 987.86"/><polygon class="cls-6" points="971.53 987.86 986.85 989.86 975.95 1000.8 978.78 1015.99 965 1009 951.43 1016.39 953.82 1001.13 942.6 990.51 957.86 988.06 964.49 974.11 971.53 987.86"/><path class="cls-7" d="M678.64,470.84s40.08,2.29,43,51.09H630.68l11.49-41.15Z"/><rect class="cls-6" x="707.43" y="1080.51" width="88.61" height="10.05"/><rect class="cls-6" x="815.52" y="1080.51" width="70.38" height="10.05"/><rect class="cls-6" x="898.31" y="1080.51" width="85.95" height="10.05"/><rect class="cls-6" x="737.75" y="1117.83" width="216.19" height="10.05"/><rect class="cls-6" x="707.43" y="1195.33" width="88.61" height="10.05"/><rect class="cls-6" x="815.52" y="1195.33" width="70.38" height="10.05"/><rect class="cls-6" x="898.31" y="1195.33" width="85.95" height="10.05"/><rect class="cls-6" x="693.45" y="1155.15" width="138.83" height="10.05"/><rect class="cls-6" x="859.42" y="1155.15" width="138.83" height="10.05"/><rect class="cls-6" x="681.85" y="1241.79" width="104.98" height="10.05"/><rect class="cls-6" x="809.92" y="1241.79" width="83.39" height="10.05"/><rect class="cls-6" x="908.01" y="1241.79" width="101.84" height="10.05"/><rect class="cls-6" x="717.77" y="1279.11" width="256.15" height="10.05"/><path class="cls-8" d="M678.64,470.84S604,459.41,581,500.29s15.79,159.27-17.22,232.12c0,0,27.92-.61,37.19-7.62l3.52,27.43s31.26-13.4,40.19-49.76-3.83-183.72,4.46-204.77S678.64,470.84,678.64,470.84Z"/><path class="cls-9" d="M1230.64,841.26s-64.68-120-176.09-147.09-135.7,62.88-240.42,23.48-179.79,33-139.59,118.85,115.93,125.62,228,73.88,94.11,39.41,181.8,8.75S1160.71,801.51,1230.64,841.26Z"/><path class="cls-10" d="M941,769.28c-4.3-15.84,4.11-32,21.22-36.7,10.51-2.85,17.48-.47,24,3.21l-5,10.43c-5.36-2.73-9.65-4.05-16-2.32-9.39,2.55-14,12.19-11.39,21.9,2.59,9.55,11.36,15.72,20.91,13.12,6.37-1.73,9.57-5.33,12.87-10.5l10.07,6.24c-4.07,7.68-9.53,12.75-20.27,15.67C961,794.79,945.38,785.44,941,769.28Z"/><path class="cls-10" d="M736.85,838.76a32.18,32.18,0,0,1-18.19,1.83c-17.95-3.26-28.39-19-25.35-35.68,3-16.54,18.52-27.7,36.47-24.44s28.39,19,25.34,35.69a29.81,29.81,0,0,1-8.19,15.76l5.06,6.16-9.79,7.57Zm-8-10.12-8-9.78,9.81-7.66,8,10.38a19.8,19.8,0,0,0,3.06-7.85c1.81-10-4-19.61-14.29-21.49s-18.93,5-20.77,15.1c-1.82,10,4,19.61,14.28,21.49A19.09,19.09,0,0,0,728.9,828.64Z"/><path class="cls-10" d="M772.68,833.5l26.32-2c7.32-.56,13.15,1.07,17.22,4.56,3.45,3,5.52,7.36,5.95,13,.7,9.29-3.87,15.51-11,18.78l15.62,19.49L812,888.41l-13.9-17.47-9.79.74,1.4,18.42-12.66,1Zm27.62,26c6.17-.47,9.46-4,9.07-9-.41-5.43-4.41-7.94-10.57-7.47l-12.58,1,1.25,16.53Z"/><path class="cls-4" d="M773.29,753.86l9.75,2.9.25,30.56,17.64-25.38,7.8,2.32.93,30.89,16.89-25.47,9.51,2.82L809.56,810l-7.92-2.35-1.3-29.85L783,802.08,775,799.73Z"/><path class="cls-10" d="M1045.66,840.87l9.27-4.19,20.19,23-3.26-30.73,7.41-3.36,20.91,22.77L1096.3,818l9-4.09,4.46,45.69-7.53,3.4-20.51-21.73,2.75,29.75-7.53,3.41Z"/><path class="cls-4" d="M932.43,830c-4-10,.67-21.37,11.55-25.68s21.89.69,25.91,10.81-.67,21.36-11.55,25.68S936.45,840.1,932.43,830Zm29.35-11.65c-2.39-6-8.82-9.32-15.06-6.84s-8.62,9.13-6.18,15.27,8.82,9.32,15.07,6.84S964.22,824.47,961.78,818.33Z"/><path class="cls-10" d="M993.22,801.21l12.37,3.29-5.91,22.25,22.8,6.06,5.92-22.25,12.36,3.29-14.94,56.22-12.37-3.29,6-22.57-22.81-6.06-6,22.57-12.37-3.29Z"/><path class="cls-10" d="M852,813.92l-17.56.54-.36-11.71,47.81-1.46.36,11.7-17.56.54,1.41,46-12.69.39Z"/><path class="cls-10" d="M863.37,753l10.71-4.89,25.74,25.78-2.68-36.33,10.46-4.78,2.48,52.57-8.57,3.92Z"/><path class="cls-10" d="M1009.52,763.84l18.55-10.91,2.83,4.81-13.17,7.75,2.93,5,11.59-6.82,2.83,4.81-11.59,6.82,3,5.16,13.35-7.85,2.83,4.81-18.73,11Z"/><path class="cls-4" d="M889.46,870.12l-5.06-40,13.07,6.14L900,862.4l21.93-14.6,12.7,6-33.89,21.38-9.52,20.26L880,890.15Z"/><path class="cls-4" d="M1078.39,741.15l40.59,18.9-5,10.66-28.86-13.44-5.29,11.35,25.44,11.84-5,10.66-25.43-11.84-9.61,20.64-11.73-5.46Z"/><path class="cls-11" d="M1214.55,1415.39H1285c5-3.42-1.36-36.89-1.36-36.89s-19.23-7.3-22.55,7.54-24.49,19.54-35.69,21.35C1217.74,1408.64,1215.31,1412.85,1214.55,1415.39Z"/><path class="cls-9" d="M1226.21,1043.81l32.89,341.62s6.89,10.62,28.75,3.46c0,0,16.87-55.18,21.91-118.16l.24-3.11c1.66-22.75,3.65-54.43,5.53-85.84,3.42-57.09,6.45-113.28,6.45-113.28Z"/><path class="cls-12" d="M1268.6,1109.16s11.28,76.1,15.17,99.23c8.3,49.23,26,62.34,26,62.34l.24-3.11c1.66-22.75,3.65-54.43,5.53-85.84Z"/><path class="cls-13" d="M1109.57,952.81s-6.53-7.92-10-9-10.31-6.37-11.19-4.21,4.56,5.51,4.28,8c-.13,1.09-4.35,1.15-9,1.09-5.92-.07-13.14-3.25-13.4-1.81-1,5.28,6.8,14.9,14.87,15.75,6.5.7,15.55-.65,26.42.49C1115.25,963.48,1109.57,952.81,1109.57,952.81Z"/><path class="cls-2" d="M1105.1,964.45c.22.64,23.64,4.56,43.91,7.4,11.94,1.68,22.79,3,27.17,3,9.54.11,27.79-3.11,49.38-12.2a210.3,210.3,0,0,0,38.27-21.13c11.58-8,11.94-14.36,21.57-27.29,29.88-40.14-9.4-57.12-31-49.41-14.94,5.32-24,14.4-32.09,26.68-9.59,14.55-17.4,30.74-41.26,44.73-18,10.55-71.56,13.44-71.56,13.44a11.07,11.07,0,0,0-3.94,6.16A33.17,33.17,0,0,0,1105.1,964.45Z"/><path class="cls-11" d="M1319,1415.39h70.45c5-3.42-1.36-36.89-1.36-36.89s-19.23-7.3-22.55,7.54-24.49,19.54-35.69,21.35C1322.22,1408.64,1319.8,1412.85,1319,1415.39Z"/><path class="cls-9" d="M1252.64,1060.32l106.69,326.54s22.7,6.06,34.33-6.31c0,0-2.7-115.14-17.26-154.45-11.78-31.8-6.07-203.53-58.3-205S1252.64,1060.32,1252.64,1060.32Z"/><path class="cls-2" d="M1228.23,1062.4c16.46,8.47,37.81,14.43,73.06,12.14,33.87-2.21,54.58-11.5,53.52-19.6-.52-4-1-8.18-1.46-12.51-1.91-18.66-2.66-40.83,1.19-72.69,1-8.27,2.27-17,3.35-24.69v0h0c1.3-9.31,2.33-16.91,2.22-19.78,0,0-10.72-48.17-18.76-55.9-2.87-2.77-7.08-5.09-12.2-6.94l0,0c-24.22-8.73-68.73-6.75-88.41,10.29-2.68,2.33-12.18,18.38-12.44,35.74C1227.9,932.62,1217.54,1056.9,1228.23,1062.4Z"/><path class="cls-13" d="M1312,860.64c2.43-3.07-4.42-8.79-1.36-31.21,0-.3-2.18.12-5.53.91-10,2.37-30,8.06-30.94,8.31h0s-.24,4.72-1.07,13.17c-.07.75-.14,1.52-.23,2.33-.1,1-.17,2.05-.32,3.12C1270.1,874.14,1300.61,875,1312,860.64Z"/><path class="cls-14" d="M1273,851.82c14.9,3.42,37.14-18.59,37.14-18.59a23.56,23.56,0,0,0-5.09-2.89c-10,2.37-30,8.06-30.94,8.31h0S1273.86,843.37,1273,851.82Z"/><path class="cls-13" d="M1268,837.46a75.8,75.8,0,0,0,13.94,3.25c11.42,1.54,26.45.63,31.17-13.19,8-23.27,18.1-37.22-5.29-46.72-12.53-5.08-20.54-5.35-26-3.41-4.73,1.67-7.51,5-9.62,8.33C1267.64,792.84,1258.5,833.39,1268,837.46Z"/><path class="cls-15" d="M1273.12,766.33a13,13,0,0,0,7.77,22.67c4.59.33,8.37.15,11,1.31,5.82,2.59,6.86,12.35,7,15.44s.51,5.72,8.41,3.87a3.78,3.78,0,0,1,2.87.17c3.28,1.94-.91,11.37-2.18,13.41,0,0-1.81,6.75,2.22,10,.49.39,8.42,3.85,27.51-25.37,3-4.59,5.87-14.93,1.24-24.88s-23.65-20.86-40.4-24.67C1288.17,756,1279.51,760.57,1273.12,766.33Z"/><path class="cls-16" d="M1267.79,822.44s-.49,3,6.51,5.42c0,0,5.88,2,7-1.07C1281.26,826.79,1276.59,822.34,1267.79,822.44Z"/><path class="cls-17" d="M1149,971.85c11.94,1.68,22.79,3,27.17,3,9.54.11,27.79-3.11,49.38-12.2.88-3.08,1.76-22.34-.12-23.63-5.71-3.94-17.09,18.27-36.17,24C1173,968,1154.26,971.05,1149,971.85Z"/><path class="cls-17" d="M1347.13,1044a5.9,5.9,0,0,0,6.22-1.6c-1.91-18.66-2.66-40.83,1.19-72.69,1-8.27,2.27-17,3.35-24.69v0s-16-13.75-21.45-2.4,10.17,41.49,1.56,59.5S1337.47,1041.32,1347.13,1044Z"/><path class="cls-13" d="M1371,1033.41s-8.64,6.27-10.86,5.9c-6.48-1.09-9.84-6.37-15.86-5.87s-18.76,7.24-17.29,8.78c5.36,5.6,13.61,2.57,17.49,6,2.69,2.38,4.31,7.31,14.1,6.31s18.43-9,18.43-9Z"/><path class="cls-2" d="M1329.09,862.38s37.72,10.55,64.57,47.53,35.53,62,25,80.47-31.12,51.2-51.08,65c0,0-10-2.13-9.2-17.4,0,0,24.51-52.24,23.62-59.31-1.64-13.16-36.53-46.51-44.16-53.39S1329.09,862.38,1329.09,862.38Z"/><path class="cls-13" d="M1356.05,1038.59s-4.35-6.72-4.94-8.68-1.58,1-1.17,3a7.91,7.91,0,0,1-.1,3.62Z"/><path class="cls-9" d="M1671.72,267.22l-6-2.62a12.75,12.75,0,0,1-6.6-16.77l22-50.65a12.76,12.76,0,0,1,16.77-6.61l8.64,3.76a2.5,2.5,0,0,1-2,4.58l-8.64-3.76a7.76,7.76,0,0,0-10.21,4l-22,50.64a7.76,7.76,0,0,0,4,10.21l6,2.63a7.77,7.77,0,0,0,10.21-4L1698.54,225a2.49,2.49,0,1,1,4.57,2l-14.62,33.62A12.77,12.77,0,0,1,1671.72,267.22Z"/><path class="cls-9" d="M1651.81,320.11l-10.82-4.7c-10-4.37-14.41-16.69-9.73-27.45l33.12-76.15a2.5,2.5,0,0,1,4.58,2L1635.83,290c-3.58,8.24-.38,17.61,7.15,20.88l10.82,4.71c7.53,3.27,16.57-.77,20.15-9l37.73-86.74c3.58-8.24.38-17.61-7.15-20.88a2.5,2.5,0,0,1,2-4.58c10,4.37,14.41,16.69,9.73,27.45l-37.73,86.74C1673.84,319.28,1661.86,324.48,1651.81,320.11Z"/><path class="cls-2" d="M298.62,787.62l3.22-5.74A12.76,12.76,0,0,1,319.19,777l48.18,27a12.75,12.75,0,0,1,4.87,17.34l-4.61,8.23a2.49,2.49,0,0,1-4.35-2.44l4.61-8.23a7.76,7.76,0,0,0-3-10.56l-48.17-27a7.77,7.77,0,0,0-10.56,3L303,790.06a7.77,7.77,0,0,0,3,10.56l32,17.94a2.49,2.49,0,0,1-2.44,4.35L303.5,805A12.76,12.76,0,0,1,298.62,787.62Z"/><path class="cls-2" d="M248,762.48l5.77-10.29c5.36-9.55,18-12.66,28.29-6.91l72.42,40.63a2.49,2.49,0,0,1-2.44,4.35l-72.42-40.63c-7.84-4.4-17.48-2.16-21.5,5l-5.77,10.29c-4,7.16-.91,16.56,6.93,21l82.49,46.28c7.84,4.4,17.48,2.15,21.5-5a2.49,2.49,0,1,1,4.35,2.44c-5.36,9.55-18.05,12.65-28.29,6.91l-82.49-46.28C246.61,784.48,242.65,772,248,762.48Z"/><g id="girl_2" data-name="girl 2"><path class="cls-18" d="M462.6,1044.18s-25.49-5.06-53.91,26.52c-19.7,21.88,10.89,34-19.54,64.2-35.74,35.49-26.64,82.48,3.25,87.21,26.05,4.13,70-31.84,86.6-32.76,34.12-1.88,51.24-23.77,19.14-58.13-9.61-10.28,5.73-27.31,2.57-51.51C498.54,1063.1,486.89,1044.9,462.6,1044.18Z"/><path class="cls-19" d="M485.09,1161.46s65,28.34,77.93,27.78,92.88-24.34,92.88-24.34l-2,13.75s-61.67,35.46-83.23,37.47c-21.22,2-93.8-19-100.8-23.49S464.73,1166,485.09,1161.46Z"/><path class="cls-13" d="M487.29,1192.67a68.57,68.57,0,0,1-24,10.22c-37,8.56-51.21-22.73-56.54-44.21a31.67,31.67,0,0,1,12.54-3.85c2.68-.32,5.49-.53,7.82-.64,4.16-3.19,10.35-16.22,11.73-36.45l1.74.46,29.17,8s-1.33,9.27-2,18c-.5,6.86-.59,13.42.71,15,2.28.49,3.65.82,3.65.82v0A188.23,188.23,0,0,1,487.29,1192.67Z"/><path class="cls-19" d="M469.75,1126.19s-1.35,9.27-2,18c-16.53-1.66-24.2-17.4-27.18-26Z"/><path class="cls-13" d="M474.68,1134.9s-39.23-2.16-37.51-26.58-2.18-41.13,22.94-40.78,29.33,10,30.74,18.3S484.93,1134.83,474.68,1134.9Z"/><path class="cls-18" d="M490.66,1072.18c-5.54-7.78-10.23-6.49-13-4.47-20.58-13.31-35.63,3.11-35.63,3.11a46.73,46.73,0,0,1-17.23,26.45s6.83,4.93,23.6,1.87c5.12-.93,9.87-4.18,14-8.24A91.94,91.94,0,0,1,445.34,1109c20.32-7.69,30.18-34.48,31.17-37.31,2.24,2.32,6.62,7.32,7.73,12,1.51,6.36,8,16.29,11.77,16.13C496,1099.81,499,1083.84,490.66,1072.18Z"/><path class="cls-2" d="M395.57,1272.44c-3.55-18.11-15.1-90.48-3.55-113.76,4.15-8.37,20.43-9.12,38.29-8.39,5.56,3.59,26.74,17.15,35.44,15.46l.49-.12c4.09-1,5.64-3.9,2.22-6.38a78.67,78.67,0,0,1,19.84,1.21c6.2,1.17,22.94,9.83,22.94,9.83s-8.43,15.23-20.86,20.49c2.12,18.9-1,27.24-20.64,70.91-16.57,36.91,2.24,70.14,2.24,70.14s-97.56,78.44-98.1,38.5C373.47,1340.26,400.09,1295.59,395.57,1272.44Z"/><path class="cls-12" d="M476.81,1417.12a18.12,18.12,0,0,0,13.05-7.94c.47-.71,1-1.46,1.51-2.27,11.11-16.81,15.43-68.3,40.41-123.15,6.08-13.35,27.92-15.75,33.88-30.85,0,0,14.65-48.92-28.06-50.36s-114.39,136.13-115.52,150.56C421,1367.08,393.84,1426.49,476.81,1417.12Z"/><path class="cls-20" d="M646.58,1416h-60.8s-2.27-9.7,1.72-16.3c3.54-5.84,2.18-9.16-.43-14a23.6,23.6,0,0,0,10.23,1.93,21.46,21.46,0,0,0,9-3.18c2.62,3,13.82,15.68,17.33,18.19C627.64,1405.51,645.35,1404.49,646.58,1416Z"/><path class="cls-17" d="M402,1177.65s-7.91,72,43.41,87.07,65.87-66.24,24.45-72.09S402,1177.65,402,1177.65Z"/><path class="cls-12" d="M567,1216.69c3.66,27.44,18,114.06,43.18,156.32,8.13,13.63-20.49,21.27-20.64,21.23-3.84-1-10.23-7.13-13.18-9.78-20.47-18.45-62-70.7-62-112.58,0-20.43-.36-59.43,14.49-69.34C538,1196.43,565.59,1205.79,567,1216.69Z"/><path class="cls-9" d="M440.56,1416s2.26-3.14,6.19-9.09c4.67-7.08,9.84-21,16.12-38.88,6.6-18.75,14.42-41.83,24.19-65.83,3-7.41,6.22-14.91,9.63-22.4,6.09-13.35,22.82-11.51,28.78-26.6,0,0,23.23-52.33-19.48-53.77s-123.87,140-128.54,153.68C372.35,1368.1,347.44,1430.36,440.56,1416Z"/><path class="cls-21" d="M602,1416H541.16s-2.27-9.7,1.72-16.3c3.53-5.84,2.18-9.16-.44-14a23.65,23.65,0,0,0,10.24,1.93,21.51,21.51,0,0,0,9-3.18c2.61,3,13.82,15.68,17.32,18.19C583,1405.51,600.73,1404.49,602,1416Z"/><path class="cls-22" d="M462.87,1368c6.6-18.75,14.42-41.83,24.19-65.83-2.55-18.19-8.06-34.1-17.32-40.51C469.74,1261.69,447.28,1331.29,462.87,1368Z"/><path class="cls-9" d="M531.56,1214.75c3.66,27.44,8.81,116,34,158.26,8.13,13.63-20.48,21.27-20.64,21.23-3.83-1-10.23-7.13-13.17-9.78-20.48-18.45-62-70.7-62-112.58,0-20.43,24-57.79,38.81-67.71A15,15,0,0,1,531.56,1214.75Z"/><path class="cls-16" d="M482,1120.86s-3.71-1.47-14.15-.62c0,0,.55,4.07,8.25,4.47A6.15,6.15,0,0,0,482,1120.86Z"/><polygon class="cls-15" points="663.52 1136.14 650.92 1113.4 623.65 1189.48 639.74 1206.75 663.52 1136.14"/><polygon class="cls-4" points="597.71 1149.46 572.37 1221.87 639.74 1206.75 663.52 1136.14 597.71 1149.46"/><polygon class="cls-16" points="603.82 1148.22 660.27 1133.67 661.88 1136.47 603.82 1148.22 603.82 1148.22"/><polygon class="cls-16" points="661.24 1135.46 649.89 1114.51 639.64 1139.98 660.38 1135.2 661.24 1135.46"/><path class="cls-13" d="M617.16,1160c-2.19-.42-6.89-2.2-11.65-3.51,1.42-1.1,3-2.45,3.44-3.85.85-2.68,1.42-3.54-1.41-2.69s-12.73,5.39-12.73,5.39h0c-5.62,1.65-10.81,9.6-10.81,9.6s-69.65,24.48-78,24.9c-13,.66-99.25-31.12-99.25-31.12-20.36,4.49-15.79,29.51-8.79,34s69.1,27,105.89,27.46c18.64.21,86.44-43.36,86.44-43.36s7.92-3.62,14.15-2.49,20.66,0,23.77-5.1S620.84,1160.65,617.16,1160Z"/><path class="cls-2" d="M451.2,1174.35s-7.72,24.43-34.23,30c0,0-43.76-13.49-22-43.3C395,1161,416.55,1145,451.2,1174.35Z"/><path class="cls-13" d="M662.38,1161.79h0a6.66,6.66,0,0,0-.23-2s-6.24-9.87-8.29-10.27c-6.23-1.23-6.23,7-4.91,12.26a21.47,21.47,0,0,0,5.16,9.13h0l-.25,7.73C664.38,1172.86,662.38,1161.79,662.38,1161.79Z"/></g><path class="cls-9" d="M1990,958.06c22.1-56.31,35.4-97.4,37.87-150.42l-59.14,46.87s52.19-68.17,64-92.72c18.19-37.79,21-75.91,25.39-118.07L2006,699.34l42.64-63.09a74.87,74.87,0,0,0,12.81-38.72q.66-15.33.56-30.34s-85.12,76.14-155.26,182.52l20.15,55.65L1897,764.88c-20.44,32.55-39.15,67.61-53.43,104-.75,1.93-1.4,3.79-2.12,5.69,15.33,37.78,41.11,103.18,32.69,95.11-7.24-6.93-28.23-36.63-44.12-60.33-37.39,135.22,29.88,195,29.88,195s37.74-4.9,68.36-30.73c15.44-13,61.72-66.18,61.72-66.18h-36.37S1979.1,985.7,1990,958.06Z"/><path class="cls-4" d="M1823.33,1272l-40.16,63.68c1-4,120-421.83,187.63-587.1l23.38-39c-67.35,164.5-169.82,558.48-170.85,562.46Z"/><path class="cls-3" d="M2250.14,1026.74c-25.88-25.93-45.43-43.28-74.25-57.52l11.64,44.18s-25.14-45.49-35.89-58c-16.54-19.27-37-30.11-59.32-42.75l18.2,42.4-24.64-39a45.38,45.38,0,0,0-18.37-16.51q-8.34-4.08-16.7-7.68s21.58,65.71,63.56,130.44l35.76,2.33-29.72,6.77c13.09,19.24,28,38.13,44.69,54.87.89.89,1.76,1.7,2.64,2.56,24.68.67,67.21,2.24,60.69,5-5.6,2.34-27.17,6.77-44.17,9.83,65.92,53.57,115.41,30.77,115.41,30.77s6.45-22.12-.45-45.38c-3.47-11.73-21.72-50.3-21.72-50.3l-8.83,20.17S2262.83,1039.47,2250.14,1026.74Z"/><path class="cls-2" d="M2383.85,1195.38l25.57,37.74c-2-1.53-204.86-168.95-280.11-246.6l-16-22.45c74.9,77.29,268.56,229.78,270.52,231.31Z"/><path class="cls-17" d="M1709.72,1298h181.92a10.73,10.73,0,0,1,10.73,10.73v68.88a37.82,37.82,0,0,1-37.82,37.82H1736.81a37.82,37.82,0,0,1-37.82-37.82v-68.88A10.73,10.73,0,0,1,1709.72,1298Z"/><path class="cls-20" d="M1883.55,1365.58v8.12a30.91,30.91,0,0,1-30.82,30.82h-104.1a30.91,30.91,0,0,1-30.83-30.82v-9a368.81,368.81,0,0,1,81.54.59C1832.12,1369.08,1865.17,1367.24,1883.55,1365.58Z"/><rect class="cls-17" x="1747.04" y="1281.96" width="108.45" height="20.14"/><path class="cls-17" d="M1860.77,1282H1737.92A4.92,4.92,0,0,1,1733,1277h0a4.92,4.92,0,0,1,4.92-4.92h122.85a4.93,4.93,0,0,1,4.92,4.92h0A4.92,4.92,0,0,1,1860.77,1282Z"/><path class="cls-13" d="M1046,655.06c1.54-.75-1.58-5.87-5-11.63-.17-.27-.34-.56-.51-.84l-1.38-2.31c-4-6.92-3-10.18-2-20.48.78-8.38,13-46.81,13-46.81l-17.78-3.06s-5.36,30.6-11.26,35.31c-3.15,2.51-6.68,2.54-9.72,4.4l-.63.4c-.76.51,3.64,9.57,11.26,19.42C1031.52,641.87,1045,655.55,1046,655.06Z"/><path class="cls-20" d="M1005.81,614a4.91,4.91,0,0,0-.88,5.25l0,0c1.55,3.49,5.62,7.38,10.32,11.27.61.51,1.15,1,1.64,1.41l.37.34.28.25c4.53,4.18,2.83,5.14,11,13.61,9.28,9.65,15.67,9.83,17.48,8.95,1.54-.75-1.58-5.87-5-11.63a39.54,39.54,0,0,1-16.55-12.19c-5.58-7.13-9.31-16.29-13.12-21.6l-.63.4A23.76,23.76,0,0,0,1005.81,614Z"/><path class="cls-13" d="M1202.57,596.44c.34-1.64-5.81-2.22-12.41-3l-2.49-.3c-7.45-.93-12.9-5.73-19.66-9.68-6.41-3.74-16-19-16-19L1135,565.87s9,13.6,12.42,19.51c2,3.48,1.93,8.08,1.67,11.63,0,.83,9.52,3.22,20.81,3.2C1184.75,600.19,1202.35,597.5,1202.57,596.44Z"/><path class="cls-20" d="M1166.87,605.28c8.74-2.13,6.66.41,19.11-1s16.21-6,16.59-7.87c.34-1.64-5.81-2.22-12.41-3l-.06.13a35.08,35.08,0,0,1-17.82,5.54c-8.44.2-17.38-2.22-23.21-2.12a22.41,22.41,0,0,0,.13,5.84C1150.3,608.34,1158.13,607.42,1166.87,605.28Z"/><path class="cls-20" d="M1083.82,493.74l-16,42.92L1047,592.71a33.91,33.91,0,0,1-11.06-1,48,48,0,0,1-10.7-5.21s5.78-60.18,16.57-94.72c2.76-8.86,5.86-16,9.28-20.07C1067.85,451.93,1083.82,493.74,1083.82,493.74Z"/><path class="cls-21" d="M1067.6,425.58c-10.45-3.37-40.26,1-70.2,6.82l-6.26-10.34L926.47,417s-21.34,47.32-9.66,77.47c1.72,4.43,5.13,7.28,11,7.37h.94l51,0c32.16,0,68.06-22.11,72.7-23,7.61-1.52,10.65,13.69,18.25,29.65s71.46,70.7,71.46,70.7,9.81.09,13.86-1.43c4.37-1.63,6-3.75,6-3.75S1091.16,433.18,1067.6,425.58Z"/><path class="cls-20" d="M988.59,233.75c-8.28-4.35-20.89-4.93-22.94-5.21-24.5-3.29-39.25,32.32-40.12,43.11-1.6,19.88-12.12,22.91-26.92,35.37-29.7,25-21,54-4.75,64.78,9.74,6.46,26.91,0,26.91,0,.24.17,47-26.11,70-38.79C1025.28,328.09,1009.7,244.84,988.59,233.75Z"/><path class="cls-13" d="M971.45,322.21c.11.06-11.33,4-19,.58-7.19-3.18-12.64-15-12.53-15,3.27-.15,6.86-3,9.63-21.77l1.39.5,23.42,8.42s-1.7,7.52-2.79,14.67C970.67,315.6,970.18,321.36,971.45,322.21Z"/><path class="cls-14" d="M974.39,294.92s0,2.74-2,10.16c-13.45-2.42-19.49-11.31-21.38-18.58Z"/><path class="cls-13" d="M977.88,302.38s-32-4.3-29.06-24.21.86-33.88,21.45-32,23.41,10.1,24,17S986.29,303,977.88,302.38Z"/><path class="cls-20" d="M993.13,252.26s-20.51,17.68-34.46,19.11-19.24-3.06-19.24-3.06a54.53,54.53,0,0,0,13.17-17.85,9.81,9.81,0,0,1,8.09-5.78C970.65,243.82,989.54,243.43,993.13,252.26Z"/><path class="cls-20" d="M980.31,250.68s6.86,6.63,9,11.56c2.09,4.75,2.71,16.1,1,20.61,0,0,10.69-20.78,4.64-30.89C988.6,241.25,980.31,250.68,980.31,250.68Z"/><path class="cls-2" d="M998.44,369.41c-1,64.86-.27,51.31-7.36,57.46-1.71,1.49-6.52,2.37-12.85,2.79-19.89,1.32-54.85-2-56.18-5.63-4.59-12.72-1.35-16.67-5.18-36.15-.4-2.07-.89-4.31-1.47-6.75-3.19-13.37-6.3-17.92,5-39.41,10.26-19.46,20.93-35.26,21.89-34.69,27.09,16.09,29.27,2.57,29.27,2.57S998.91,337.77,998.44,369.41Z"/><path class="cls-21" d="M1067.86,536.66,1047,592.71a33.91,33.91,0,0,1-11.06-1,48,48,0,0,1-10.7-5.21s5.78-60.18,16.57-94.72Z"/><path class="cls-2" d="M971.6,309.59s27.87,4.73,31.14,16.73,22.54,82.56,22.54,82.56-14.17,2.54-20.72-4-22.78-60.74-22.78-60.74Z"/><path class="cls-17" d="M1002.19,393.33s-2.79-27.05-3.75-27.05-2.87,27.05-2.87,27.05Z"/><path class="cls-17" d="M978.23,429.66c-19.89,1.32-54.85-2-56.18-5.63-4.59-12.72-1.35-16.67-5.18-36.15l9.6-27s-1.59,30.08,7.28,38,36.33,15.28,40.64,21.89A24,24,0,0,1,978.23,429.66Z"/><polygon class="cls-9" points="966.28 385.57 960.38 444.57 1009.13 451.12 1040.24 433.53 1049.29 380.2 1018.84 396.93 966.28 385.57"/><polygon class="cls-23" points="1018.84 396.93 1009.13 451.12 1040.24 433.53 1049.29 380.2 1018.84 396.93"/><path class="cls-13" d="M950.87,416.84s14.64.84,17.4,2.61S978,425,976,426s-6.27-2.59-6.35-1.15,8.88,6.95,12.34,7.93-7.5,4.37-12.94,1.48c-5.06-2.67-6.5-6.12-8.58-7.45s-9.56-2.16-9.56-2.16Z"/><path class="cls-2" d="M942.3,307s-26.34,1.62-35.46,14.34c-12.84,17.91-38.31,94.23-23.72,104.41,16.44,11.46,74.82,3,74.82,3s1.94-9.08-.76-13.48-46.63-11.48-48.66-13.51,25.35-39.53,25.35-45.61S942.3,307,942.3,307Z"/><path class="cls-16" d="M969.53,386.28l2.07-5s11.31,4.14,20.46,3.67,23.94,3.31,25.36,7.65a17.56,17.56,0,0,1,10.05-6.86c6.7-1.59,17.54-5.92,17.54-5.92l2.92,1.14-29.09,16Z"/><path class="cls-24" d="M162.51,1413.48h61.66c3.3-3.13-2.29-10.25-8.13-10.73-2.54-.22-5.74.38-9.41,1.24-.85-12.61-5.69-69.3-23.95-67-20.54,2.55,0,25,5.8,38.24,4.3,9.83,8.84,23.92,10.91,30.58-1.67.4-3.39.8-5.16,1.16-2.72-9.35-12.84-40.8-25.72-39-15.12,2.14-9,14.75,1.67,22.24,7.86,5.5,17.52,13.33,22.11,17.11a58.58,58.58,0,0,1-12.06,1.08C169.67,1408.13,164.51,1411.61,162.51,1413.48Z"/><path class="cls-24" d="M2349.12,1413.48H2286.7c-3.34-3.17,2.32-10.38,8.23-10.86,2.57-.22,5.82.38,9.53,1.26.86-12.77,5.76-70.16,24.25-67.85,20.79,2.58,0,25.27-5.88,38.71-4.35,10-8.94,24.22-11,31,1.69.41,3.44.81,5.22,1.18,2.76-9.47,13-41.31,26-39.46,15.31,2.18,9.16,14.94-1.69,22.52-8,5.57-17.74,13.5-22.38,17.32a59.28,59.28,0,0,0,12.21,1.1C2341.88,1408.06,2347.1,1411.59,2349.12,1413.48Z"/><path class="cls-24" d="M2059.11,1335.82c5.14,2.18,23.52.42,24.12-1.12s-11.43-16.17-16.57-18.35a9.9,9.9,0,0,0-13.09,5.79A10.66,10.66,0,0,0,2059.11,1335.82Z"/><path class="cls-24" d="M2105.47,1345c-2.88,5-4.19,24.2-2.84,25.06s17.12-9.17,20-14.13a10.78,10.78,0,0,0-3.35-14.44A9.81,9.81,0,0,0,2105.47,1345Z"/><path class="cls-24" d="M2080.7,1382.67c5.29,1.76,23.49-1.46,24-3s-12.57-15.22-17.86-17a10,10,0,0,0-12.63,6.81A10.61,10.61,0,0,0,2080.7,1382.67Z"/><path class="cls-24" d="M2107.47,1401.3c0-.44-2-44-24.87-66.5l.49-.54c23,22.7,25.07,66.57,25.09,67Z"/><path class="cls-24" d="M2183.63,1336.76c-3.2,2.23-15.92,3.69-16.52,2.73s5.61-12.64,8.82-14.86a6.78,6.78,0,0,1,9.65,2A7.48,7.48,0,0,1,2183.63,1336.76Z"/><path class="cls-24" d="M2153.36,1349.7c2.62,3,6,15.83,5.25,16.61s-12.84-3.76-15.45-6.7a7.51,7.51,0,0,1,.36-10.29A6.74,6.74,0,0,1,2153.36,1349.7Z"/><path class="cls-24" d="M2175.17,1371.69c-3.36,2-16.14,2.41-16.68,1.41s6.52-12.15,9.88-14.12a6.81,6.81,0,0,1,9.48,2.8A7.46,7.46,0,0,1,2175.17,1371.69Z"/><path class="cls-24" d="M2159.46,1388.21c-.05-.3-4.43-30.17,8.08-48.74l-.4-.3c-12.63,18.75-8.21,48.82-8.16,49.12Z"/><path class="cls-24" d="M2136.87,1398.76l-1.45-.24c-5.72-77.35-28.31-132.85-28.63-133.6l1.33-.6C2108.43,1265.09,2131.19,1321,2136.87,1398.76Z"/><path class="cls-16" d="M2091.47,1257.14c2.79,3.3,15.83,8.6,16.73,7.77s-2.52-15-5.3-18.32a7.4,7.4,0,0,0-10.76-.7A8.23,8.23,0,0,0,2091.47,1257.14Z"/><path class="cls-16" d="M2111.46,1245.63c-2.52,3.53-4.8,18-3.84,18.72s13.55-5.66,16.06-9.19a8.2,8.2,0,0,0-1.56-11.15A7.4,7.4,0,0,0,2111.46,1245.63Z"/><path class="cls-16" d="M2126.46,1261c-4.06-1.16-17.75,1.89-18.06,3.11s10,11.1,14,12.26a7.59,7.59,0,0,0,9.36-5.59A8,8,0,0,0,2126.46,1261Z"/><path class="cls-16" d="M2117.22,1280.13c-.41-4.38-8-16.68-9.19-16.56s-6.39,13.71-6,18.09a7.72,7.72,0,0,0,8.32,7.16A7.88,7.88,0,0,0,2117.22,1280.13Z"/><path class="cls-16" d="M2096.45,1279.19c3.73-2,11.76-14,11.2-15.15s-14.56-1-18.28,1a8.15,8.15,0,0,0-3.21,10.76A7.47,7.47,0,0,0,2096.45,1279.19Z"/><path class="cls-8" d="M2105.17,1263.63a2.53,2.53,0,0,1,2.87-2.18,2.61,2.61,0,0,1,2.09,3,2.53,2.53,0,0,1-2.88,2.18A2.61,2.61,0,0,1,2105.17,1263.63Z"/><path class="cls-24" d="M2136.45,1319.68c-4.14,5.33-8.61,27.67-7.15,28.9s21.46-7.89,25.6-13.22a12.82,12.82,0,0,0-1.72-17.48A11.55,11.55,0,0,0,2136.45,1319.68Z"/><path class="cls-24" d="M2020,1334.42c.29.46,13.53,23.87,26,61.51-.51-.16-1-.23-1.46-.39-12.29-37-25.24-60-25.54-60.43Z"/><path class="cls-16" d="M2004.79,1330.15c2.79,2.54,14.72,5.59,15.42,4.76s-3.85-12.78-6.64-15.32a6.49,6.49,0,0,0-9.44.69A7.21,7.21,0,0,0,2004.79,1330.15Z"/><path class="cls-16" d="M2020.92,1317.73c-1.8,3.38-2.2,16.22-1.28,16.76s11.17-6.56,13-9.94A7.18,7.18,0,0,0,2030,1315,6.55,6.55,0,0,0,2020.92,1317.73Z"/><path class="cls-16" d="M2035.67,1329.29c-3.66-.52-15.24,3.79-15.38,4.88s9.93,8.47,13.59,9a6.76,6.76,0,0,0,7.53-6A7,7,0,0,0,2035.67,1329.29Z"/><path class="cls-16" d="M2029.73,1347.07c-.83-3.77-8.79-13.56-9.82-13.31s-4.05,12.7-3.22,16.47a6.68,6.68,0,0,0,8,5.23A7,7,0,0,0,2029.73,1347.07Z"/><path class="cls-16" d="M2011.55,1348.75c3-2.23,8.69-13.64,8.08-14.54s-12.78.88-15.8,3.11a7.2,7.2,0,0,0-1.61,9.75A6.52,6.52,0,0,0,2011.55,1348.75Z"/><path class="cls-8" d="M2017.43,1334.15a2.2,2.2,0,1,1,2.14,2.37A2.27,2.27,0,0,1,2017.43,1334.15Z"/><path class="cls-24" d="M2042.21,1359.65c-2.33,3.95-3.43,19.33-2.35,20s13.71-7.28,16-11.23a8.63,8.63,0,0,0-2.64-11.56A7.83,7.83,0,0,0,2042.21,1359.65Z"/><path class="cls-24" d="M2216.36,1400l1.59-.26c6.25-84.53,30.94-145.19,31.29-146l-1.45-.65C2247.44,1253.86,2222.58,1314.91,2216.36,1400Z"/><path class="cls-16" d="M2266,1245.17c-3,3.6-17.3,9.4-18.28,8.5s2.75-16.42,5.79-20a8.08,8.08,0,0,1,11.76-.77A9,9,0,0,1,2266,1245.17Z"/><path class="cls-16" d="M2244.14,1232.6c2.75,3.85,5.24,19.63,4.19,20.45s-14.8-6.19-17.55-10a9,9,0,0,1,1.7-12.18A8.09,8.09,0,0,1,2244.14,1232.6Z"/><path class="cls-16" d="M2227.74,1249.37c4.44-1.26,19.4,2.08,19.74,3.4s-10.92,12.14-15.36,13.41a8.3,8.3,0,0,1-10.23-6.11A8.77,8.77,0,0,1,2227.74,1249.37Z"/><path class="cls-16" d="M2237.84,1270.29c.45-4.78,8.74-18.22,10-18.09s7,15,6.54,19.77a8.44,8.44,0,0,1-9.1,7.83A8.62,8.62,0,0,1,2237.84,1270.29Z"/><path class="cls-16" d="M2260.54,1269.27c-4.08-2.24-12.85-15.34-12.24-16.56s15.91-1.1,20,1.13a8.91,8.91,0,0,1,3.51,11.76A8.16,8.16,0,0,1,2260.54,1269.27Z"/><path class="cls-8" d="M2251,1252.26a2.76,2.76,0,0,0-3.14-2.38,2.85,2.85,0,0,0-2.28,3.28,2.76,2.76,0,0,0,3.14,2.38A2.85,2.85,0,0,0,2251,1252.26Z"/><path class="cls-24" d="M2212.68,1336.16c4.53,5.82,9.41,30.24,7.82,31.59s-23.45-8.63-28-14.45a14,14,0,0,1,1.89-19.11A12.61,12.61,0,0,1,2212.68,1336.16Z"/><path class="cls-24" d="M2239.05,1341.7c-6.38,3.43-20.23,23.75-19.29,25.65s24.8,1.94,31.18-1.5a13.89,13.89,0,0,0,5.61-18.29A12.73,12.73,0,0,0,2239.05,1341.7Z"/><path class="cls-24" d="M2002.42,1412s7.3-20.08,33.84-21.35,44.8,15.14,66.72,7.57,58.21-24.65,92.53-13.27,40.11,27,40.11,27Z"/><rect class="cls-20" y="1412.66" width="2525.53" height="6.7" rx="2.86"/></g></g></svg>