<svg xmlns="http://www.w3.org/2000/svg" xmlns:xlink="http://www.w3.org/1999/xlink" viewBox="0 0 1078.5 748.72"><defs><style>.cls-1{fill:#e8505b;}.cls-2{fill:#fff;opacity:0.4;}.cls-12,.cls-16,.cls-2,.cls-7{isolation:isolate;}.cls-12,.cls-3,.cls-4{fill:none;stroke-miterlimit:10;}.cls-3,.cls-4{stroke:#535461;}.cls-4{stroke-width:2px;}.cls-5{fill:#fc6681;}.cls-6{fill:#ffd037;}.cls-12,.cls-7{opacity:0.1;}.cls-8{fill:url(#linear-gradient);}.cls-9{fill:#e2e2ec;}.cls-10{fill:#f1f2fb;}.cls-11{fill:#e8eaf8;}.cls-12{stroke:#000;stroke-width:4px;}.cls-13{fill:url(#linear-gradient-2);}.cls-14{fill:#fdc2cc;}.cls-15{fill:#5f5d7e;}.cls-16{opacity:0.15;}.cls-17{fill:#d39999;}.cls-18{fill:#865a61;}</style><linearGradient id="linear-gradient" x1="600" y1="56.58" x2="600" y2="584.35" gradientTransform="matrix(1, 0, 0, -1, -60.75, 721.29)" gradientUnits="userSpaceOnUse"><stop offset="0" stop-color="gray" stop-opacity="0.25"/><stop offset="0.54" stop-color="gray" stop-opacity="0.12"/><stop offset="1" stop-color="gray" stop-opacity="0.1"/></linearGradient><linearGradient id="linear-gradient-2" x1="1372.56" y1="-27.42" x2="1372.56" y2="617.17" gradientTransform="translate(2172.25 721.29) rotate(180)" xlink:href="#linear-gradient"/></defs><title>big_book</title><g id="Layer_2" data-name="Layer 2"><g id="Layer_1-2" data-name="Layer 1"><path class="cls-1" d="M294.3,276.86S147.16,244,334.38,51.47c0,0,80.7,76.49,51.1,171.57-11.9,38.23-50.2,61.83-89,54.27Z"/><path class="cls-2" d="M294.3,276.86c-3.23-.72-144-36.15,40.08-225.39,0,0,80.7,76.49,51.1,171.57-11.9,38.23-50.2,61.83-89,54.27Z"/><path class="cls-3" d="M296.25,278S374,160.88,334.4,51.48"/><path class="cls-4" d="M899.61,390.55s-25.36-102.11,13.07-174.81c16.14-30.51,22.55-65.27,17.16-99.36a268.26,268.26,0,0,0-12.14-47.5"/><path class="cls-1" d="M941.65,22.92c-.53,12.36-24.44,47.23-24.44,47.23S896.37,33.36,896.9,21a22.4,22.4,0,0,1,44.75,1.92Z"/><path class="cls-1" d="M975.71,93c-7.16,10.09-46.19,26.37-46.19,26.37S932,77.11,939.18,67a22.4,22.4,0,0,1,37.09,25.13c-.19.27-.37.53-.57.8Z"/><path class="cls-1" d="M969.08,209.85c-11.27,5.09-53.18-.55-53.18-.55s23.47-35.17,34.74-40.27a22.4,22.4,0,0,1,18.44,40.82Z"/><path class="cls-1" d="M944.15,297.17c-10.25,6.92-52.51,8.44-52.51,8.44s17.19-38.63,27.44-45.56a22.4,22.4,0,0,1,25.07,37.12Z"/><path class="cls-1" d="M882.44,119.74c8.49,9,49.41,19.68,49.41,19.68S923.49,98,915,89a22.4,22.4,0,0,0-32.56,30.76Z"/><path class="cls-1" d="M854.58,222.19c10.8,6,53,4,53,4s-20.33-37.06-31.14-43.09a22.4,22.4,0,0,0-21.86,39.09Z"/><path class="cls-1" d="M841.17,325.52c9.62,7.77,51.59,12.9,51.59,12.9s-13.82-40-23.44-47.74a22.4,22.4,0,0,0-28.15,34.84Z"/><path class="cls-5" d="M941.65,22.92c-.53,12.36-24.44,47.23-24.44,47.23S896.37,33.36,896.9,21a22.4,22.4,0,0,1,44.75,1.92Z"/><path class="cls-5" d="M975.71,93c-7.16,10.09-46.19,26.37-46.19,26.37S932,77.11,939.18,67a22.4,22.4,0,0,1,37.09,25.13c-.19.27-.37.53-.57.8Z"/><path class="cls-5" d="M969.08,209.85c-11.27,5.09-53.18-.55-53.18-.55s23.47-35.17,34.74-40.27a22.4,22.4,0,0,1,18.44,40.82Z"/><path class="cls-5" d="M944.15,297.17c-10.25,6.92-52.51,8.44-52.51,8.44s17.19-38.63,27.44-45.56a22.4,22.4,0,0,1,25.07,37.12Z"/><path class="cls-5" d="M882.44,119.74c8.49,9,49.41,19.68,49.41,19.68S923.49,98,915,89a22.4,22.4,0,0,0-32.56,30.76Z"/><path class="cls-5" d="M854.58,222.19c10.8,6,53,4,53,4s-20.33-37.06-31.14-43.09a22.4,22.4,0,0,0-21.86,39.09Z"/><path class="cls-5" d="M841.17,325.52c9.62,7.77,51.59,12.9,51.59,12.9s-13.82-40-23.44-47.74a22.4,22.4,0,0,0-28.15,34.84Z"/><path class="cls-4" d="M806.77,324.6s106.36-89.13,130-134.08,53.77-83.67,53.77-83.67"/><path class="cls-1" d="M976.59,207.31l-46-10.38S941.43,245.47,976.59,207.31Z"/><path class="cls-1" d="M906.25,157.74l26.48,39.66S881,201.16,906.25,157.74Z"/><path class="cls-1" d="M994.69,170l-42.06-7.38S979.06,202.84,994.69,170Z"/><path class="cls-1" d="M932.49,134.6l20.76,27.14S916.5,165.2,932.49,134.6Z"/><path class="cls-1" d="M974.39,129.19s35.85,1.71,40,5.13-5.34,23.48-19,20.21S974.39,129.19,974.39,129.19Z"/><path class="cls-1" d="M960.07,97.18s14.63,26.66,14.08,31.73-22.29,10.77-26.69-8.45S960.07,97.18,960.07,97.18Z"/><circle class="cls-6" cx="998.51" cy="111.44" r="10"/><circle class="cls-6" cx="982.86" cy="101.25" r="10"/><path class="cls-1" d="M328.86,347.48s43-32-11-144c0,0-72-89,0-173,0,0-157,4-154,150s78.5,167,78.5,167Z"/><path class="cls-4" d="M288.7,347.48s-10.83-77-39.83-124a100.78,100.78,0,0,1-12.19-30.74C227,150.11,240.81,105.53,272.12,75l45.75-44.57"/><path class="cls-1" d="M418.41,90.43s9.88,12.92-4.56,32.42-26.34,36-21.53,48.12c0,0,21.78-36.22,39.51-36.73S437.91,112.21,418.41,90.43Z"/><path class="cls-7" d="M418.41,90.43a16.09,16.09,0,0,1,2,4c17.3,20.32,26.51,39.29,9.89,39.77-15.49.44-34.07,28.14-38.52,35.13a14.82,14.82,0,0,0,.53,1.59s21.78-36.22,39.51-36.73S437.91,112.21,418.41,90.43Z"/><path class="cls-6" d="M436.77,106.89c0,4.55-.51,8.23-1.14,8.23s-1.14-3.69-1.14-8.23.64-2.41,1.27-2.41S436.77,102.35,436.77,106.89Z"/><path class="cls-6" d="M443.07,112.32c-4,2.18-7.47,3.49-7.77,2.94s2.69-2.76,6.68-4.94,2.42-.59,2.72,0S447.06,110.14,443.07,112.32Z"/><path class="cls-1" d="M366.25,90.43s-9.88,12.92,4.56,32.42,26.34,36,21.53,48.12c0,0-21.78-36.22-39.51-36.73S346.73,112.21,366.25,90.43Z"/><path class="cls-7" d="M366.25,90.43a16.09,16.09,0,0,0-2,4c-17.3,20.32-26.51,39.29-9.89,39.77,15.49.44,34.07,28.14,38.52,35.13a14.82,14.82,0,0,1-.53,1.59s-21.81-36.23-39.54-36.72S346.73,112.21,366.25,90.43Z"/><path class="cls-6" d="M347.87,106.89c0,4.55.51,8.23,1.14,8.23s1.14-3.69,1.14-8.23-.64-2.41-1.27-2.41S347.87,102.35,347.87,106.89Z"/><path class="cls-6" d="M341.57,112.32c4,2.18,7.47,3.49,7.77,2.94s-2.69-2.76-6.68-4.94-2.42-.59-2.72,0S337.58,110.14,341.57,112.32Z"/><path class="cls-8" d="M1078.5,645.35,990.89,259.87H958.34c-1.3-14.73-2.17-29-2.5-42.44,0,0-118,25.82-212.1-48.88S539,175,539,175l-.43-.31v0c-7.68-5.44-113.66-78.07-204.27-6.13-94.06,74.7-212.1,48.88-212.1,48.88-.33,13.61-1.21,28-2.54,42.87H89.47L0,646.74s363.7,13.62,491.15,1.06c4.57,9.66,24.27,16.92,47.87,16.92,26.52,0,48.09-9.17,48.84-20.6C687.07,651.67,900.55,663.74,1078.5,645.35Z"/><path class="cls-9" d="M98.84,263.26,11.25,641.6s482.17,18.06,521-7.22c0,0,299.33,30.25,535,5.87L981.47,262.82Z"/><path class="cls-7" d="M128.64,276.33,47,629.06s449.54,16.84,485.74-6.73c0,0,279.07,28.2,498.79,5.47l-80-351.89Z"/><path class="cls-10" d="M947.16,221.28s-115.58,25.28-207.68-47.86S539,179.74,539,179.74s-108.35-79.46-200.45-6.32-207.68,47.86-207.68,47.86c-3.64,147.18-72.23,385.56-72.23,385.56s126.41,34.31,293.46-35.21S539,596,539,596s19.86-93.91,186.91-24.38,293.46,35.21,293.46,35.21S950.77,368.46,947.16,221.28Z"/><path class="cls-7" d="M316,598.74S468.6,564.43,539,615c0,0,67.72-61.4,224.83-13.54"/><ellipse class="cls-11" cx="539.02" cy="638.44" rx="47.86" ry="20.77"/><path class="cls-7" d="M538.57,179.29s34.31,174.27.9,419.87"/><path class="cls-12" d="M164,275.91s71.87,16.7,134.08,0,176.43-71.33,214,0"/><path class="cls-12" d="M164,306.61s71.87,16.7,134.08,0,196.91-15.8,214,0"/><path class="cls-12" d="M164,360.74s71.87,16.7,134.08,0,176.43-71.33,214,0"/><path class="cls-12" d="M164,391.48s71.87,16.7,134.08,0,196.91-15.8,214,0"/><path class="cls-12" d="M914.1,275.91s-71.87,16.7-134.08,0-176.43-71.33-214,0"/><path class="cls-12" d="M914.1,306.61s-71.87,16.7-134.08,0-196.91-15.8-214,0"/><path class="cls-12" d="M914.1,360.74s-71.87,16.7-134.08,0-176.43-71.33-214,0"/><path class="cls-12" d="M914.1,391.48s-71.87,16.7-134.08,0-196.91-15.8-214,0"/><path class="cls-1" d="M915.56,716.53c3-2.29,5.85-5,6.72-8.27a7,7,0,0,0-4.69-8.42c-4.31-1.34-8.91,1.09-12.41,3.55s-7.49,5.27-12.06,4.75c4.73-3.42,7-9,5.68-14a5.36,5.36,0,0,0-1.58-2.85c-2.39-2.09-6.73-1.19-9.59.45-9.11,5.23-11.65,15.32-11.7,24.41-.92-3.28-.14-6.69-.17-10.06s-1.15-7.09-4.63-8.9a16.34,16.34,0,0,0-7.06-1.35c-4.09-.12-8.66.21-11.45,2.66-3.47,3-2.57,8.13.45,11.47s7.62,5.44,11.85,7.75c3.23,1.76,6.49,3.81,8.47,6.59a6.35,6.35,0,0,1,.63,1.18h25.67A73.87,73.87,0,0,0,915.56,716.53Z"/><path class="cls-13" d="M738.07,356.43s.25,1.44.67,4c-.22.4-.44.8-.67,1.19-8.2,13.8-9.46,33.68-8.69,50a164,164,0,0,0,6.87,38.8,181.18,181.18,0,0,1,7,50.4,36.49,36.49,0,0,0,11.48,8.36c.22.67.45,1.35.65,2A204.56,204.56,0,0,1,763,549.79l2.58,32.66s19.77,73.92,25.78,87.67c4.28,9.78,3.34,30,2.44,40.84-2.57,7.29-5.7,14.24-8.46,15-5,1.42-10,13.46-2.72,19.51h0a12.32,12.32,0,0,0,1.75,1.2l.29.16.53.27.78.35.4.15.83.28.36.11c.39.11.79.22,1.22.32A21.89,21.89,0,0,0,803.63,746c5.48-.82,10.35-3.76,14-6.73l-.1,5.21h6L823.25,734c1.08-1.21,1.68-2,1.68-2s.18-6.29.87-13.61l-.44,23.49h6l-1.62-43.35a6.63,6.63,0,0,1,1.19-1.77c5-5-3.64-21.13-8.11-23.82,2-10.6,9.63-25.91,18.43-55.26,12.89-43-3.44-85.09-3.44-85.09v-33c4.33-1.86,6.88-3.13,6.88-3.13s-6-35.24,0-60.16c3.89-16.11,4.9-30.42,1.65-44.11,4.32-14.88,7.81-26.37,7.81-26.37l6-61.88c1.53-9.29,2.56-17.24,3.22-24,.11-.84.19-1.69.23-2.53,1.1-12.59.86-21,.14-26.5a42.11,42.11,0,0,0,.36-7.61,30.39,30.39,0,0,0,.16-3.93c.86-1,1.7-2,2.5-3a43.11,43.11,0,0,0,5.39-8.6c6.61-12.47,6.8-27.7-2.43-38.69-5.68-6.77-7.45-14.06-12.36-21.27-4.49-6.6-5.34-14.51-6.42-22.11a270.22,270.22,0,0,0-5.5-28.07c-.69-2.72-4.47-4.39-6.35-6.65-3.63-4.37-14.23-4.22-20.34-5.19-10.26-1.63-21.37-3.15-30.71.88-6.5,2.81-11.17,7.92-16.25,12.43-5.47,4.85-16.67,7.19-18.41,13-1.55,2.22-1.63,5,1,8.72s6.54,6.14,10.27,8.82c.48.34.93.7,1.4,1a36.52,36.52,0,0,0,19.85,38.64q-.15,1-.33,1.92a116.89,116.89,0,0,1-4.52,16.51c-1.11,3.32-13.95,9.12-23,12.84a11.32,11.32,0,0,0-3.67-2.53c-6.88-1.72-30.08,11.17-31.8,15.47-.48,1.2.78,4.52,2.83,8.7a31.76,31.76,0,0,0,.93,5.64c-.51,8.8.41,23,4.84,45.83Zm96.5,9.67c-.32-.61-.65-1.23-1-1.87C824,344.92,818.35,313.7,832,295.08c1.22.13,2.44.25,3.66.33.81,25.34.34,67,.34,67s-.54,1.4-1.46,3.69ZM800.48,513.28c1.94,9.75,4.22,21.08,6.35,31.38a82.6,82.6,0,0,1-.5,36.32l-8.08-24.24-1.88-42.65-.12-1.75c1.3-.22,2.59-.46,3.87-.71Z"/><path class="cls-14" d="M806.72,542.8a81.24,81.24,0,0,1-.49,35.75,45.4,45.4,0,0,1-2,6.55l2.28,92.7.26,10.51a55.14,55.14,0,0,0,6.4.94,30.08,30.08,0,0,0,6,0c2-.25,3.76-.85,4.7-2s1.14-3-.19-5.69a17,17,0,0,1-1.63-9.55c.08-.92.23-1.89.41-2.89,2-10.43,9.47-25.51,18.14-54.39,12.69-42.3-3.38-83.75-3.38-83.75V492l-41.45-4.23s2,10.48,4.75,24.1C802.38,521.51,804.62,532.66,806.72,542.8Z"/><path class="cls-7" d="M806.72,542.8a81.24,81.24,0,0,1-.49,35.75,45.4,45.4,0,0,1-2,6.55l2.28,92.7.26,10.51a55.14,55.14,0,0,0,6.4.94,30.08,30.08,0,0,0,6,0c2-.25,3.76-.85,4.7-2s1.14-3-.19-5.69a17,17,0,0,1-1.63-9.55c.08-.92.23-1.89.41-2.89,2-10.43,9.47-25.51,18.14-54.39,12.69-42.3-3.38-83.75-3.38-83.75V492l-41.45-4.23s2,10.48,4.75,24.1C802.38,521.51,804.62,532.66,806.72,542.8Z"/><path class="cls-14" d="M749.19,492a127.44,127.44,0,0,1,6.87,17.83,201.43,201.43,0,0,1,7.51,38L766.11,580s19.46,72.75,25.38,86.29c4.21,9.63,3.29,29.53,2.4,40.22-.36,4.34-.71,7.16-.71,7.16l8.63-10.57,11.31-13.87,5.16-6.33,1.13-1.38a51.86,51.86,0,0,1-3.3-8.83h0A150.91,150.91,0,0,1,811,644.36c-2.54-26.22-3.38-61.76-3.38-61.76l-1.34-4-8-23.91-1.85-42-.69-15.55Z"/><path class="cls-15" d="M814.63,674.53a60.24,60.24,0,0,0-10.06,19.89c-2.69,9.15-7.42,23.21-11.39,24.34-5.92,1.69-11.84,18.61,3.38,22s27.92-13.54,27.92-13.54.85-29.61,5.92-34.68-4.23-22-8.46-23.69C820.25,668.16,817.39,671,814.63,674.53Z"/><path class="cls-7" d="M791.49,738.22a20.46,20.46,0,0,0,11.88-1.08A26.56,26.56,0,0,0,820,714.33c.72-9.06,2.24-21.24,5.33-24.33,4-4-1-15.4-5.3-20.85a2.27,2.27,0,0,1,1.91-.3c4.23,1.69,13.54,18.61,8.46,23.69s-5.92,34.68-5.92,34.68-12.67,16.92-27.9,13.52a14.07,14.07,0,0,1-6.06-2.79C790.83,738.05,791.15,738.14,791.49,738.22Z"/><path class="cls-15" d="M829.2,693.25l1.63,43.7h-5.92l.82-43.67a1.67,1.67,0,0,1,1.74-1.59h0A1.68,1.68,0,0,1,829.2,693.25Z"/><path class="cls-16" d="M829.2,693.25l1.63,43.7h-5.92l.82-43.67a1.67,1.67,0,0,1,1.74-1.59h0A1.68,1.68,0,0,1,829.2,693.25Z"/><path class="cls-15" d="M807,677.07A60.24,60.24,0,0,0,797,697c-2.69,9.15-7.42,23.21-11.39,24.34-5.92,1.69-11.84,18.61,3.38,22s27.92-13.56,27.92-13.56.85-29.61,5.92-34.68-4.23-22-8.46-23.69C812.62,670.74,809.78,673.5,807,677.07Z"/><path class="cls-7" d="M783.88,740.74a20.46,20.46,0,0,0,11.88-1.08,26.56,26.56,0,0,0,16.62-22.81c.72-9.06,2.24-21.24,5.33-24.33,4-4-1-15.4-5.3-20.85a2.27,2.27,0,0,1,1.91-.3c4.23,1.69,13.54,18.61,8.46,23.69s-5.91,34.68-5.91,34.68S804.18,746.66,789,743.28a14.07,14.07,0,0,1-6.06-2.79C783.25,740.59,783.54,740.68,783.88,740.74Z"/><path class="cls-15" d="M821.58,695.74l1.63,43.7h-6l.82-43.67a1.67,1.67,0,0,1,1.74-1.59h0A1.67,1.67,0,0,1,821.58,695.74Z"/><path class="cls-16" d="M821.58,695.74l1.63,43.7h-6l.82-43.67a1.67,1.67,0,0,1,1.74-1.59h0A1.67,1.67,0,0,1,821.58,695.74Z"/><path class="cls-14" d="M750,227.26l33.84,53.3,39.76,5.08s24.53-48.22,23.69-50.76S833.79,227.27,822,218s2.54-48.22,2.54-48.22l-38.91,3.38c.15.52.3,1,.41,1.58,1.55,6.57,1,13.86-.19,20.27a115.18,115.18,0,0,1-4.46,16.22C779.65,216.26,750,227.26,750,227.26Z"/><path class="cls-7" d="M795.72,487.81s2,10.48,4.75,24.1a194.43,194.43,0,0,0,36.71-11.72V492Z"/><path class="cls-7" d="M749.19,492a127.44,127.44,0,0,1,6.87,17.83c11.77,5.31,26.41,5.16,40.34,2.79l-.69-15.55Z"/><path class="cls-17" d="M739,362.61c-8.07,13.59-9.31,33.14-8.55,49.26a161.35,161.35,0,0,0,6.76,38.18,178.62,178.62,0,0,1,6.9,49.61C772.91,531,844,495.43,844,495.43s-5.92-34.68,0-59.22c4.12-17.06,5-32.09.82-46.49a73.08,73.08,0,0,0-8.43-18.65c-1.12-1.78-2.21-3.75-3.26-5.86-9.8-19.82-15.46-52.38.3-70.34a32.62,32.62,0,0,1,5.5-5c13.74-9.95,20-21,22.64-30.35a40.89,40.89,0,0,0,1-17.87c-1.69-9.31-25.38-17.77-25.38-17.77.85,27.92-34.68,51.6-34.68,51.6S761.87,223,755.11,221.34s-29.61,11-31.3,15.23,18.61,35.53,18.61,35.53S755.12,335.54,739,362.61Z"/><path class="cls-7" d="M838.87,289.86c13.74-9.95,20-21,22.64-30.35-.66-14-4-16.17-4-16.17s-28,27.06-25.41,36.4c.58,2.15,1,7.77,1.27,15.16A32.44,32.44,0,0,1,838.87,289.86Z"/><path class="cls-7" d="M791.49,482.74c5.92,17.77,35.53-13.54,36.38-27.07.54-8.66,10.09-42.61,16.89-65.94a73.08,73.08,0,0,0-8.43-18.65c-1.12-1.78-2.21-3.75-3.26-5.86-3.21,7.89-16.1,40.23-15.35,49.85.85,11-5.08,27.07-5.08,27.07S785.57,465,791.49,482.74Z"/><path class="cls-14" d="M859.17,243.33s9.31,5.92,0,62.6l-5.92,60.91s-22.84,75.29-23.69,88.83-30.45,44.83-36.38,27.07,21.15-40.61,21.15-40.61,5.92-16.07,5.08-27.07,16.07-51.6,16.07-51.6.85-74.44-1.69-83.75S859.17,243.33,859.17,243.33Z"/><path class="cls-7" d="M734,236.56s-11,2.54,0,59.22l6.77,61.76s15.23,88.83,14.38,99,33,36.38,35.53,22-16.92-38.07-16.92-38.07-8.48-18.64-8.48-53.33l-1.69-27.92L751.73,258.56Z"/><path class="cls-14" d="M732.25,236.56s-11,2.54,0,59.22L739,357.54s15.23,88.83,14.38,99,33,36.38,35.53,22S772,440.47,772,440.47s-8.46-18.61-8.46-53.3l-1.69-27.92L750,258.56Z"/><path class="cls-7" d="M726.78,239.52s-5.08,27.07,30.45,36.38S753,243.74,753,243.74,739.47,223.45,726.78,239.52Z"/><path class="cls-17" d="M727.62,238.68s-5.07,27.06,30.46,36.37-4.23-32.15-4.23-32.15S740.31,222.6,727.62,238.68Z"/><path class="cls-7" d="M863,239.52s5.08,27.07-30.45,36.38,4.22-32.16,4.22-32.16S850.25,223.45,863,239.52Z"/><path class="cls-17" d="M862.13,238.68s5.12,27.06-30.45,36.37,4.23-32.15,4.23-32.15S849.44,222.6,862.13,238.68Z"/><path class="cls-7" d="M785.8,195c4.67,1.36,9.9-9.58,15.42-9.58,5.85,0,11.36,11.71,16.24,9.23a146,146,0,0,1,6.18-23.19L786,174.74C787.53,181.27,787,188.55,785.8,195Z"/><circle class="cls-14" cx="802.07" cy="160.85" r="35.95"/><path class="cls-7" d="M755.09,145.33c2.5,3.52,6.44,6,10.11,8.68A110.4,110.4,0,0,1,778,164.74a37.94,37.94,0,0,1,7.17,8.88c2.85,5.32,3.23,11.34,3.57,17.2l3.49,60.53c.23,4,.46,8.09-.56,12a41,41,0,0,1-4.33,9.48c-4.61,8.18-9.35,16.52-16.77,23-2.48,2.15-5.5,4.93-4.19,7.75,1.06,2.27,4.32,3,7.12,3.33,11.75,1.58,24.77,2.93,34.66-2.8,3.73-2.16,6.82-5.26,11-6.6,5.82-1.85,12.24.08,18.44.07,6.58,0,12.86-2.19,19-4.35a6.84,6.84,0,0,0,3.12-1.76,5.2,5.2,0,0,0,.89-2.39c.93-4.91,1.81-10,.29-14.81-1.65-5.21-6-9.72-6.49-15.1-.64-7.48,6.26-13.57,11.22-19.72,10.56-13.09,12.91-31.94,2.07-44.85-5.59-6.66-7.34-13.84-12.17-20.93-4.42-6.49-5.26-14.28-6.32-21.76a267,267,0,0,0-5.42-27.63c-.67-2.68-4.4-4.32-6.25-6.55-3.58-4.3-14-4.15-20-5.11-10.1-1.6-21-3.1-30.23.87-6.4,2.76-11,7.8-16,12.23C764.25,132,747.07,134,755.09,145.33Z"/><path class="cls-18" d="M755.94,143.64c2.5,3.52,6.44,6,10.11,8.68a110.57,110.57,0,0,1,12.82,10.75A37.94,37.94,0,0,1,786,172c2.85,5.32,3.23,11.34,3.57,17.2l3.52,60.51c.23,4,.46,8.09-.56,12a41,41,0,0,1-4.33,9.48c-4.61,8.18-9.35,16.52-16.77,23-2.48,2.15-5.5,4.93-4.19,7.75,1.06,2.27,4.32,3,7.12,3.33,11.75,1.58,24.77,2.93,34.66-2.8,3.73-2.16,6.82-5.26,11-6.6,5.82-1.85,12.24.08,18.44.07,6.58,0,12.86-2.19,19-4.35a6.84,6.84,0,0,0,3.12-1.76,5.2,5.2,0,0,0,.89-2.39c.93-4.91,1.81-10,.29-14.81-1.65-5.21-6-9.72-6.49-15.1-.64-7.48,6.26-13.57,11.22-19.72,10.56-13.09,12.91-31.94,2.07-44.85-5.59-6.66-7.34-13.84-12.17-20.93-4.42-6.49-5.26-14.28-6.32-21.76a267,267,0,0,0-5.42-27.63c-.67-2.68-4.4-4.32-6.25-6.55-3.58-4.3-14-4.15-20-5.11-10.1-1.6-21-3.1-30.23.87-6.4,2.76-11,7.8-16,12.23C765.05,130.35,747.92,132.33,755.94,143.64Z"/></g></g></svg>