<svg xmlns="http://www.w3.org/2000/svg" xmlns:xlink="http://www.w3.org/1999/xlink" viewBox="0 0 1054.56 500.08"><defs><style>.cls-1,.cls-8{fill:#e8505b;}.cls-1,.cls-4,.cls-9{opacity:0.1;}.cls-1,.cls-4{isolation:isolate;}.cls-2{opacity:0.7;}.cls-3{fill:#65617d;}.cls-5{fill:#3f3d56;}.cls-6{fill:url(#linear-gradient);}.cls-7{fill:#fbbebe;}</style><linearGradient id="linear-gradient" x1="884.89" y1="-255.88" x2="884.89" y2="227.2" gradientTransform="matrix(1, 0, 0, -1, -28, 227.2)" gradientUnits="userSpaceOnUse"><stop offset="0" stop-color="gray" stop-opacity="0.25"/><stop offset="0.54" stop-color="gray" stop-opacity="0.12"/><stop offset="1" stop-color="gray" stop-opacity="0.1"/></linearGradient></defs><title>organize_your_library</title><g id="Layer_2" data-name="Layer 2"><g id="b469a9e0-5433-4729-b694-038fdc7b8087"><ellipse class="cls-1" cx="392" cy="325.54" rx="392" ry="10.5"/><g class="cls-2"><rect class="cls-3" x="121" y="248.04" width="125" height="69"/><rect class="cls-4" x="165" y="260.04" width="38" height="8"/><rect class="cls-4" x="169.75" y="261.04" width="28.5" height="6"/><rect class="cls-3" x="248" y="248.04" width="125" height="69"/><rect class="cls-4" x="292" y="260.04" width="38" height="8"/><rect class="cls-4" x="296.75" y="261.04" width="28.5" height="6"/><rect class="cls-3" x="121" y="177.04" width="125" height="69"/><rect class="cls-4" x="165" y="189.04" width="38" height="8"/><rect class="cls-4" x="169.75" y="190.04" width="28.5" height="6"/><rect class="cls-3" x="248" y="177.04" width="125" height="69"/><rect class="cls-4" x="292" y="189.04" width="38" height="8"/><rect class="cls-4" x="296.75" y="190.04" width="28.5" height="6"/><rect class="cls-3" x="121" y="105.04" width="125" height="69"/><rect class="cls-4" x="165" y="117.04" width="38" height="8"/><rect class="cls-4" x="169.75" y="118.04" width="28.5" height="6"/><rect class="cls-3" x="248" y="105.04" width="125" height="69"/><rect class="cls-4" x="292" y="117.04" width="38" height="8"/><rect class="cls-4" x="296.75" y="118.04" width="28.5" height="6"/><rect class="cls-3" x="248" y="33.04" width="125" height="69"/><rect class="cls-4" x="292" y="45.04" width="38" height="8"/><rect class="cls-4" x="296.75" y="46.04" width="28.5" height="6"/></g><g class="cls-2"><rect class="cls-3" x="375" y="247.04" width="125" height="69"/><rect class="cls-4" x="419" y="259.04" width="38" height="8"/><rect class="cls-4" x="423.75" y="260.04" width="28.5" height="6"/><rect class="cls-3" x="502" y="247.04" width="125" height="69"/><rect class="cls-4" x="546" y="259.04" width="38" height="8"/><rect class="cls-4" x="550.75" y="260.04" width="28.5" height="6"/><rect class="cls-3" x="375" y="176.04" width="125" height="69"/><rect class="cls-4" x="419" y="188.04" width="38" height="8"/><rect class="cls-4" x="423.75" y="189.04" width="28.5" height="6"/><rect class="cls-3" x="502" y="176.04" width="125" height="69"/><rect class="cls-4" x="546" y="188.04" width="38" height="8"/><rect class="cls-4" x="550.75" y="189.04" width="28.5" height="6"/><rect class="cls-3" x="375" y="104.04" width="125" height="69"/><rect class="cls-4" x="419" y="116.04" width="38" height="8"/><rect class="cls-4" x="423.75" y="117.04" width="28.5" height="6"/><rect class="cls-3" x="502" y="104.04" width="125" height="69"/><rect class="cls-4" x="546" y="116.04" width="38" height="8"/><rect class="cls-4" x="550.75" y="117.04" width="28.5" height="6"/><rect class="cls-3" x="502" y="32.04" width="125" height="69"/><rect class="cls-4" x="546" y="44.04" width="38" height="8"/><rect class="cls-4" x="550.75" y="45.04" width="28.5" height="6"/></g><path class="cls-5" d="M696.36,190.79a4.57,4.57,0,0,0-2.49-3.58,4.66,4.66,0,0,0-6.1,2.46l-.06.14L665.5,236.54l-5,184h8l3-183.59,24.44-43.26A4.75,4.75,0,0,0,696.36,190.79Z"/><path class="cls-1" d="M1054.56,462.1a143.83,143.83,0,0,1-21.08,15.31,3.5,3.5,0,0,1-.39.46,6.39,6.39,0,0,1-2.75,1.38h0a164.43,164.43,0,0,1-81.08,20.82H399.44C336.44,493.59,298,485,298,475.57c0-7.31,23.08-14.12,62.82-19.82q6.18-.9,12.89-1.74c2.75-.34,5.57-.68,8.45-1l4.89-.57q5.44-.62,11.17-1.21h.31l4-.4q5.07-.52,10.35-1l2.56-.23L422,449q6.36-.57,13-1.09l11.2-.86c38.46-2.85,82.8-5,131.05-6.39l13.78-.47,4.64-.1,9.8-.22,3.93-.08,4.13-.08,2.94-.05,13.8-.22,7.09-.1h1.45q25.15-.3,51.24-.31c34.38,0,67.72.41,99.49,1.19h0q27.36.66,53,1.68h.16c49.38,1.94,93.58,4.8,130.16,8.35l.67.07c9.39.91,18.28,1.88,26.62,2.88,7.85.94,15.22,1.93,22.06,2.94,2.37.35,4.67.71,6.91,1.06l.57.1C1039.19,458.85,1047.51,460.41,1054.56,462.1Z"/><path class="cls-6" d="M1033.48,477.41a3.5,3.5,0,0,1-.39.46,6.39,6.39,0,0,1-2.75,1.38h0a27.11,27.11,0,0,1-6.2,1h-.63a26.87,26.87,0,0,1-3.59-.12,17.78,17.78,0,0,0-2.63-.17h-.12a19.22,19.22,0,0,0-3.75.93,32.81,32.81,0,0,1-8.3,1.18h-1c-3.14,0-6.32-.11-9.47-.09h-1.53c-5.4.14-10.77,1-16.17,1.09h-1.73c-5.29-.13-10.7-1.26-14.91-4.46a5.83,5.83,0,0,1-2-2.24,6.24,6.24,0,0,1-.35-3c.1-1.81.45-3.78,1.81-5a8,8,0,0,1,2.88-1.39c1.83-.59,3.67-1.16,5.5-1.73s3.92-1.18,5.89-1.76l.38-.12,1.1-.33.71-.24a11.15,11.15,0,0,0,2.46-1.12,8.15,8.15,0,0,0,2.53-2.53c.11-.18.23-.37.33-.56s0-.31-.07-.47c-.17-1.25-.3-2.53-.52-3.75a15,15,0,0,1-7.39-4.18,23.5,23.5,0,0,1-4.31-5.83c-2.49-4.68-3.77-9.91-5.63-14.88-2.85-7.56-7-14.54-11.18-21.46-3.82-6.38-7.66-12.78-12-18.81-2.89-4-6-7.81-8.86-11.82a105.06,105.06,0,0,1-17.08-37.3,50,50,0,0,0-2.07-7.58c-1.72-4.2-4.87-7.62-7.31-11.46a37.94,37.94,0,0,1-5.29-13.57c-.5-2.74-1.34-5.7-4.07-6h0l-.29.57c-5.66,11-11.47,22.2-20,31.18a33.84,33.84,0,0,0-3.73,4.29,41.3,41.3,0,0,0-2.4,4.62,29.75,29.75,0,0,1-5.31,7.77,14.16,14.16,0,0,1-2.1,1.77,11.05,11.05,0,0,1-3.29,1.65h0a8.58,8.58,0,0,1-1.42.32c0,.12,0,.23.06.35s.06.26.08.39a47,47,0,0,1-1.83,23.93c-.07.24-.15.47-.24.71q-.62,1.68-1.35,3.3c-1.22,2.65-2.67,5.19-3.81,7.88-.19.46-.38.92-.55,1.38-4,10.71-3,22.67-3.52,34.18a37.57,37.57,0,0,1-.89,7.48c-.68,2.77-1.77,5.63-2.37,8.49a14.35,14.35,0,0,0-.13,6.55l-.24.09c-1.07.4-2.16.76-3.25,1.1v.15c.39,2.24.77,4.48,1.16,6.71.33,1.92.72,4,2.06,5.36a7.87,7.87,0,0,1,1,1c.79,1.24.09,2.88.24,4.35.22,2.08,2.14,3.85,1.84,5.92a3.88,3.88,0,0,1-2.34,2.78,6.43,6.43,0,0,1-1.54.49l-.33.07c-.6.11-1.2.17-1.8.23-7.45.74-15,1.48-22.38.22-1.46-.25-2.91-.58-4.39-.7a33.82,33.82,0,0,0-5.6.23,273.65,273.65,0,0,1-41.19.8c-3.57-.2-7.67-.78-9.56-3.83-1.57-2.53-1-5.8-.21-8.69a9.65,9.65,0,0,1,1.21-3,1.93,1.93,0,0,1,.22-.28c1.84-2.29,5.3-2.43,8.28-2.34l9.74.29a8.89,8.89,0,0,0,2.86-.22c1.58-.46,2.78-1.72,4.26-2.43,1.86-.89,4.2-1,5.54-2.52l.17-.22a9.6,9.6,0,0,0,.66-1c0-.07.09-.14.14-.21h0l.12-.18c1.23-1.62,3.38-2.16,5.13-3.19a4.85,4.85,0,0,0,.75-.53l.2-.18a20.33,20.33,0,0,1-4.86-4.89,5,5,0,0,1-1.11-1.94,2.84,2.84,0,0,1,.12-1.63,3,3,0,0,1,.16-.37l0-.1c.68-1.34,2.08-2.55,2.85-3.92a.61.61,0,0,0,.07-.14c1.06-2,1.27-5.1-.3-6.71.8-13.17,4.42-26,5.22-39.21.32-5.23.19-10.48.43-15.73s.8-10.34,1.39-15.49c1.32-11.77,4.52-23.3,4.07-35.12a21.44,21.44,0,0,1,.14-3.3v-.24a20.42,20.42,0,0,1,2.23-6.92,53.84,53.84,0,0,1,4.91-6.92c6.15-8,13.54-16,15.73-25.84,1.13-5.08,3.63-9.73,6.12-14.3,1.47-2.72,3-5.51,5.35-7.51a23.44,23.44,0,0,0,3.53-3c1.64-2.12,1.7-5.05,2.67-7.57.5-1.31,1.27-2.51,1.65-3.86a2,2,0,0,1,.1-.41,27.06,27.06,0,0,0,.35-4.12,9.24,9.24,0,0,1,.11-1.18h0a41.61,41.61,0,0,1,3.41-11.43c.21-.46.41-.93.61-1.39a42.89,42.89,0,0,1-12-10.41,24.41,24.41,0,0,1-2.91-4.39c-2.06-4.09-2.53-8.75-3.5-13.23-2.32-10.68-7.63-20.74-8.37-31.66-.22-3.33,0-6.77-1.16-9.92a20.51,20.51,0,0,0-1.13-2.48c-.18-.34-.35-.68-.53-1l-.2-.38-.51-1-.82.64A599.4,599.4,0,0,1,755,195.41l-1.92,1.14a7.13,7.13,0,0,0-2.54,2.08c-.08.13-.15.26-.22.39h0c-.46.95-.58,2-1,3-.9,2.29-3.21,3.75-5.57,4.43a17.16,17.16,0,0,1-12.65-1.63,15.28,15.28,0,0,1-1.44-.8,19,19,0,0,1-3.68,1.57c-4,1.16-8.19,1.11-12.33,1.1s-8.37,0-12.29,1.36c-2.62.89-5.16,2.36-7.88,2.5a7.37,7.37,0,0,1-.94,0,13.41,13.41,0,0,1-4.46-1.31l-.82-.37a12.39,12.39,0,0,1-1.24-.67,6.5,6.5,0,0,1-1.21-.95,4.4,4.4,0,0,1-1.12-1.91,3.06,3.06,0,0,1,0-1.59,1,1,0,0,1,.34-.6,1.2,1.2,0,0,1,.59-.15,18.66,18.66,0,0,1,3.42.29,11.13,11.13,0,0,0,2,.11h.36a4.3,4.3,0,0,0,3-1.7,1.59,1.59,0,0,0,.26-.48h0a2.25,2.25,0,0,0,.18-.89.88.88,0,0,0,0-.23c-.42-.19-.84-.38-1.24-.61-.21-.11-.41-.23-.61-.35l-.12-.08a6.58,6.58,0,0,1-1-.83,3.19,3.19,0,0,1-.51-.64,3.54,3.54,0,0,1-.59-1.2h0a5.51,5.51,0,0,0-2.49.07c-1.09.3-2.19.94-3.27,1.16a2.81,2.81,0,0,1-1.65-.07c-1.56-.56-2.11-2.46-2.44-4.09-.06-.31-.13-.63-.18-1h0a5.28,5.28,0,0,1,0-1.86,6.88,6.88,0,0,1,2.63-3.43l3.28-2.75.24-.2a5.76,5.76,0,0,0-.15-.81,4.9,4.9,0,0,1,0-1.87,6.86,6.86,0,0,1,2.63-3.42l7.26-6.11c1.36-1.14,2.84-2.34,4.61-2.46,2.63-.18,4.73,2,6.7,3.75,2.48,2.2,5.49,4,8.8,4.22a12.65,12.65,0,0,0,4.65-.64l.85-.28c-.18-.37-.36-.74-.53-1.11-.29-.61-.58-1.23-.86-1.85,4.26-.27,8.13-2.61,11.36-5.41s6-6.11,9.26-8.86c3.52-3,7.56-5.23,11.13-8.12,8.3-6.73,13.81-16.62,22.69-22.55,3.08-2.07,6.64-3.72,8.74-6.8.65-1,1.14-2,1.81-3,2.13-3,5.78-4.38,8.79-6.46s5.63-5.13,8.08-8.06c1.74-2.09,3.49-4.18,5.15-6.33,1.53-2.85,2.82-5.83,4.42-8.64A42.69,42.69,0,0,1,816,82.78c.41-.8.83-1.6,1.28-2.38s.78-1.31,1.2-2c.29-.45.59-.88.9-1.32-.91-1.61-1.78-3-2.19-3.61l-.2-.27a29.36,29.36,0,0,0-2.82-2.64,23.41,23.41,0,0,1-3.1-.66,29.15,29.15,0,0,1-21.46-28.17.14.14,0,0,1,0-.09,28.92,28.92,0,0,1,3.18-13.18c.42-.82.87-1.61,1.36-2.38a8.06,8.06,0,0,1-1.33-.54A5.21,5.21,0,0,1,791,24a4.38,4.38,0,0,1-.77-1.94,9.92,9.92,0,0,1,.72-4.84,22.67,22.67,0,0,1,.93-2.16.54.54,0,0,0,.07-.13c4.47-9,14-14.53,23.52-14.92,10.27-.41,20.27,4.41,28.37,11.31a38.23,38.23,0,0,1,6.44,6.77C854.48,24,856.39,31.5,857,39a32,32,0,0,1-.12,6.92,16.49,16.49,0,0,1-.5,2.42c-.13.47-.3.94-.48,1.41a9.17,9.17,0,0,1-.45,1v0c-.15.32-.32.62-.49.92l-.09.13-.13.21c.08.19.17.39.26.58s.17.37.27.55h.12c2,.16,3.85.44,5.89.6a14.35,14.35,0,0,1,2.84.44c2,.6,3.51,2.06,5.19,3.24,4.16,2.94,9.28,4.31,13.37,7.35,6,4.48,9,11.88,12.64,18.51,4.8,8.88,12.62,16.44,16.07,25.94q2.34,6.48,4.7,12.92c3.07,8.43,6.14,16.9,10.31,24.85,5.8,11.06,13.65,21,18.3,32.62a5.16,5.16,0,0,0,2.44,2.7,212.5,212.5,0,0,1,16.85,28.19c2.57,5.19,5,10.58,5.75,16.33a39.31,39.31,0,0,1-1.25,15.26,74.72,74.72,0,0,1-2.93,8.66,14.12,14.12,0,0,0-1,3.09v.33c-.2,1.92.53,3.82.73,5.74a10.62,10.62,0,0,1-.51,4.58c-.08.23-.17.46-.26.69a24.37,24.37,0,0,0-1.57,3.64,4,4,0,0,0-.08.46c-.33,2.17.53,4.36,1,6.53,1.76,7.84,1.44,16,1,24-.23,4,3,7.21,5.7,10.16,5,5.53,8.91,12,12.68,18.44a59.08,59.08,0,0,1,5.17,10.34c1.43,4.12,2,8.48,2.79,12.75,2.55,13.2,10.88,24.86,13.14,38.09A34,34,0,0,0,1012,406a35.31,35.31,0,0,1,3.33,4,16.05,16.05,0,0,1,1.65,3.6,26.74,26.74,0,0,1,1.37,9.13,13.78,13.78,0,0,0,.25,4.44c.94,3.07,4.3,4.76,5.69,7.65s.43,6.59,1,9.87a10.65,10.65,0,0,0,4,6.66c-.8.7-1.64,1.34-2.5,2a10.19,10.19,0,0,1,2.07,2.18,10.31,10.31,0,0,1,1,1.77c1.32,3.07,1.36,6.72,2.44,10,.46,1.36,1.11,2.8.71,4.18a4.58,4.58,0,0,0-.34,1.24c0,.9.94,1.49,1.3,2.31A2.47,2.47,0,0,1,1033.48,477.41Z"/><path class="cls-7" d="M821.84,87.41c6.12-1.65,11.57-5.1,16.91-8.51l18.61-11.85c-5.05-.4-9.41-4-12-8.36s-3.66-9.43-4.54-14.41c-8,3.12-14.93,8.41-21.39,14-2.56,2.21-8,5.55-8.79,9s4.25,6.25,6.2,8.56C817.51,76.61,823.82,86.86,821.84,87.41Z"/><path class="cls-4" d="M821.84,87.41c6.12-1.65,11.57-5.1,16.91-8.51l18.61-11.85c-5.05-.4-9.41-4-12-8.36s-3.66-9.43-4.54-14.41c-8,3.12-14.93,8.41-21.39,14-2.56,2.21-8,5.55-8.79,9s4.25,6.25,6.2,8.56C817.51,76.61,823.82,86.86,821.84,87.41Z"/><path class="cls-7" d="M720.15,185.29c-3.28,1.68-6.77,3.4-10.44,3.16-3.3-.21-6.31-2-8.79-4.19-2-1.74-4.06-3.91-6.69-3.73-1.76.12-3.24,1.31-4.6,2.44L682.38,189a6.87,6.87,0,0,0-2.63,3.4,6.7,6.7,0,0,0,.17,2.82c.33,1.62.88,3.51,2.44,4.06s3.26-.63,4.91-1.08a5.8,5.8,0,0,1,5.67,1.67,3.36,3.36,0,0,1,1,2.18c0,1.81-2,3-3.84,3.09s-3.6-.51-5.42-.4a.85.85,0,0,0-.93.72v0a3.81,3.81,0,0,0,1.17,3.48,10.07,10.07,0,0,0,3.26,2,12.94,12.94,0,0,0,4.46,1.3c3.07.2,5.89-1.5,8.8-2.49,3.92-1.32,8.14-1.36,12.28-1.35s8.34.07,12.31-1.09,7.74-3.73,9.29-7.56a1.85,1.85,0,0,0,.17-1.16,1.92,1.92,0,0,0-.84-1c-5.58-4.13-7.84-9.15-14.12-12.12Z"/><path class="cls-4" d="M720.15,185.29c-3.28,1.68-6.77,3.4-10.44,3.16-3.3-.21-6.31-2-8.79-4.19-2-1.74-4.06-3.91-6.69-3.73-1.76.12-3.24,1.31-4.6,2.44L682.38,189a6.87,6.87,0,0,0-2.63,3.4,6.7,6.7,0,0,0,.17,2.82c.33,1.62.88,3.51,2.44,4.06s3.26-.63,4.91-1.08a5.8,5.8,0,0,1,5.67,1.67,3.36,3.36,0,0,1,1,2.18c0,1.81-2,3-3.84,3.09s-3.6-.51-5.42-.4a.85.85,0,0,0-.93.72v0a3.81,3.81,0,0,0,1.17,3.48,10.07,10.07,0,0,0,3.26,2,12.94,12.94,0,0,0,4.46,1.3c3.07.2,5.89-1.5,8.8-2.49,3.92-1.32,8.14-1.36,12.28-1.35s8.34.07,12.31-1.09,7.74-3.73,9.29-7.56a1.85,1.85,0,0,0,.17-1.16,1.92,1.92,0,0,0-.84-1c-5.58-4.13-7.84-9.15-14.12-12.12Z"/><path class="cls-8" d="M837.25,78.64a12.07,12.07,0,0,0-10.58-1.23,22.94,22.94,0,0,0-9.11,6.07A41.81,41.81,0,0,0,811.13,92c-1.7,3-3,6.14-4.7,9.13-3,5.35-6.92,10.07-10.86,14.75-2.45,2.91-4.93,5.86-8.07,8s-6.65,3.45-8.78,6.42c-.67.94-1.15,2-1.81,2.95-2.09,3.06-5.64,4.7-8.73,6.75-8.86,5.9-14.37,15.72-22.65,22.41-3.57,2.88-7.6,5.14-11.11,8.08-3.27,2.73-6,6-9.26,8.8s-7.09,5.11-11.34,5.37c2.84,6.33,6.23,12.54,11.1,17.47s12.17,8.08,18.82,6.15c2.36-.68,4.67-2.12,5.57-4.4a18.85,18.85,0,0,1,1.18-3.41,7,7,0,0,1,2.53-2.07,597.08,597.08,0,0,0,76.11-52.73c6.43-5.24,12.81-9.93,19.41-15a41.77,41.77,0,0,0,6.53-5.72,21.73,21.73,0,0,0,2.64-24,57.2,57.2,0,0,0-6.06-8.21A72.43,72.43,0,0,0,837.25,78.64Z"/><path class="cls-4" d="M837.25,78.64a12.07,12.07,0,0,0-10.58-1.23,22.94,22.94,0,0,0-9.11,6.07A41.81,41.81,0,0,0,811.13,92c-1.7,3-3,6.14-4.7,9.13-3,5.35-6.92,10.07-10.86,14.75-2.45,2.91-4.93,5.86-8.07,8s-6.65,3.45-8.78,6.42c-.67.94-1.15,2-1.81,2.95-2.09,3.06-5.64,4.7-8.73,6.75-8.86,5.9-14.37,15.72-22.65,22.41-3.57,2.88-7.6,5.14-11.11,8.08-3.27,2.73-6,6-9.26,8.8s-7.09,5.11-11.34,5.37c2.84,6.33,6.23,12.54,11.1,17.47s12.17,8.08,18.82,6.15c2.36-.68,4.67-2.12,5.57-4.4a18.85,18.85,0,0,1,1.18-3.41,7,7,0,0,1,2.53-2.07,597.08,597.08,0,0,0,76.11-52.73c6.43-5.24,12.81-9.93,19.41-15a41.77,41.77,0,0,0,6.53-5.72,21.73,21.73,0,0,0,2.64-24,57.2,57.2,0,0,0-6.06-8.21A72.43,72.43,0,0,0,837.25,78.64Z"/><path class="cls-5" d="M794.28,449.61c-1.75,1-3.9,1.56-5.13,3.18-.4.52-.67,1.13-1.1,1.63-1.33,1.56-3.69,1.63-5.54,2.52-1.48.7-2.68,2-4.25,2.41a9,9,0,0,1-2.87.22l-9.72-.29c-3.08-.09-6.69.07-8.48,2.58a9.35,9.35,0,0,0-1.22,3c-.75,2.87-1.36,6.12.21,8.64,1.88,3,6,3.61,9.55,3.81a274.31,274.31,0,0,0,41.14-.8,33.58,33.58,0,0,1,5.58-.23c1.48.12,2.93.45,4.39.7,7.37,1.25,14.91.52,22.35-.22a11.52,11.52,0,0,0,3.67-.78,3.87,3.87,0,0,0,2.33-2.77c.31-2.06-1.62-3.81-1.83-5.88-.15-1.46.55-3.09-.25-4.33a7.27,7.27,0,0,0-1-1c-1.34-1.39-1.73-3.42-2.06-5.32l-1.75-10.27a3.22,3.22,0,0,0-.84-1.94,3,3,0,0,0-1.24-.51c-7.62-1.72-15.43-.15-23,.81a61,61,0,0,1-11.77.59c-1.7-.11-2.36-.31-3.63.8S795.87,448.68,794.28,449.61Z"/><path class="cls-5" d="M978.29,462a16.78,16.78,0,0,1-4.26,1.67q-5.89,1.73-11.76,3.59a7.87,7.87,0,0,0-2.87,1.38c-1.36,1.2-1.71,3.16-1.81,5a6.24,6.24,0,0,0,.35,3,6,6,0,0,0,2,2.22c4.48,3.39,10.33,4.44,15.95,4.44s11.2-.95,16.82-1.1c6.79-.18,13.76.78,20.29-1.12a10.91,10.91,0,0,1,6.48-.77,27.58,27.58,0,0,0,10.42-.95,6.25,6.25,0,0,0,2.76-1.37,2.56,2.56,0,0,0,.74-2.82c-.36-.81-1.28-1.4-1.29-2.29a4.55,4.55,0,0,1,.33-1.24c.41-1.37-.25-2.8-.71-4.15-1.29-3.86-1.08-8.3-3.39-11.65s-6.55-4.73-10.58-5.26a29.61,29.61,0,0,0-9.85.28c-3.65.78-7.06,2.41-10.64,3.45a34.59,34.59,0,0,1-12.8,1.21c-2.86-.24-1.88.21-2.85,2.61A8.48,8.48,0,0,1,978.29,462Z"/><circle class="cls-7" cx="818.5" cy="44.54" r="29"/><path class="cls-8" d="M1028.74,451.6c-9,7.73-21.15,11.11-33,11.23-5,.05-10.19-.49-14.45-3.08-.3-1.64-.42-3.41-.72-5.05-5.17-1.08-9.18-5.29-11.68-9.95s-3.77-9.84-5.63-14.78c-2.84-7.52-7-14.45-11.16-21.33-3.82-6.34-7.65-12.7-12-18.69-2.88-4-6-7.76-8.85-11.75a104,104,0,0,1-17-37.06,49.08,49.08,0,0,0-2.07-7.53c-1.72-4.18-4.87-7.58-7.3-11.39a37.56,37.56,0,0,1-5.29-13.49c-.49-2.72-1.33-5.66-4.06-5.94h0c-5.74,11.15-11.59,22.48-20.27,31.55a33.57,33.57,0,0,0-3.73,4.26,41,41,0,0,0-2.4,4.6,29.7,29.7,0,0,1-5.3,7.72,12.33,12.33,0,0,1-6.82,3.72,46.63,46.63,0,0,1-3.28,28.5c-1.21,2.64-2.66,5.16-3.8,7.83-4.66,11-3.58,23.41-4.07,35.34a37.15,37.15,0,0,1-.88,7.43c-1.21,4.88-3.71,10.07-2.5,14.95-12.54,4.79-26.47,4.49-39.75,2.47a19,19,0,0,1-7.41-2.25,20.21,20.21,0,0,1-4.86-4.86,4.91,4.91,0,0,1-1.11-1.93c-.52-2.28,2-4,3.17-6s1.38-5.17-.23-6.81c.8-13.09,4.42-25.87,5.22-39,.32-5.2.19-10.42.43-15.63s.8-10.28,1.38-15.4c1.32-11.69,4.52-23.15,4.07-34.9A20.34,20.34,0,0,1,805.75,314a52.67,52.67,0,0,1,4.9-6.88c6.14-7.93,13.52-15.88,15.71-25.67,1.13-5.05,3.63-9.67,6.11-14.21,1.47-2.71,3-5.48,5.34-7.47a23,23,0,0,0,3.53-3c1.64-2.11,1.7-5,2.67-7.52.5-1.3,1.27-2.5,1.64-3.84a21.21,21.21,0,0,0,.45-4.5c.32-4.84,2.18-9.52,4.14-14a42.49,42.49,0,0,1-12-10.34,24.56,24.56,0,0,1-2.9-4.37c-2.06-4.06-2.53-8.69-3.5-13.14-2.31-10.62-7.62-20.61-8.36-31.46-.22-3.31,0-6.73-1.15-9.86a31,31,0,0,0-1.86-3.85,15.44,15.44,0,0,1-1.58-3.88c-.64-3,.24-6,0-9-.24-2.65-1.37-5.13-1.93-7.72a36.69,36.69,0,0,1-.29-10.2c.25-4,1.12-8.13.78-12.08A46.7,46.7,0,0,1,830,75.11l.23-.23c1.91-2,4-3.77,5.72-5.89,2.34-2.84,4-6.18,6.47-8.94,1.08-1.23,2.3-2.33,3.37-3.57A30.3,30.3,0,0,1,849,52.84a5,5,0,0,1,4.52-1.21,12.46,12.46,0,0,0,1.38,4.26c2.08.16,3.93.45,6,.61a14.35,14.35,0,0,1,2.84.44c2,.59,3.51,2,5.18,3.21,4.16,2.93,9.27,4.29,13.36,7.31,6,4.45,9,11.8,12.62,18.39,4.79,8.83,12.6,16.34,16,25.78l4.69,12.84c3.07,8.38,6.14,16.79,10.3,24.69,5.79,11,13.63,20.91,18.28,32.42a5.18,5.18,0,0,0,2.43,2.68,209.64,209.64,0,0,1,16.83,28c2.57,5.16,5,10.52,5.74,16.23,1.09,8.07-1.11,16.23-4.17,23.77a12.66,12.66,0,0,0-1,3.4c-.2,1.91.53,3.79.73,5.7a10.55,10.55,0,0,1-.77,5.24,24.6,24.6,0,0,0-1.57,3.62c-.54,2.3.42,4.64.94,6.94,1.76,7.79,1.44,15.86,1,23.84-.23,4,3,7.17,5.69,10.1,5,5.49,8.9,11.91,12.67,18.32a59.55,59.55,0,0,1,5.16,10.28c1.43,4.09,2,8.42,2.79,12.67,2.54,13.11,10.86,24.7,13.12,37.85a33.68,33.68,0,0,0,7.72,16.27,35.31,35.31,0,0,1,3.33,4,16.54,16.54,0,0,1,1.64,3.58,26.36,26.36,0,0,1,1.37,9.07,13.6,13.6,0,0,0,.25,4.41c.94,3.05,4.3,4.73,5.68,7.6s.43,6.55,1,9.81A10.52,10.52,0,0,0,1028.74,451.6Z"/><path class="cls-7" d="M726.15,176.29c-3.28,1.68-6.77,3.4-10.44,3.16-3.3-.21-6.31-2-8.79-4.19-2-1.74-4.06-3.91-6.69-3.73-1.76.12-3.24,1.31-4.6,2.44L688.38,180a6.87,6.87,0,0,0-2.63,3.4,6.7,6.7,0,0,0,.17,2.82c.33,1.62.88,3.51,2.44,4.06s3.26-.63,4.91-1.08a5.8,5.8,0,0,1,5.67,1.67,3.36,3.36,0,0,1,1,2.18c0,1.81-2,3-3.84,3.09s-3.6-.51-5.42-.4a.85.85,0,0,0-.93.72v0a3.81,3.81,0,0,0,1.17,3.48,10.07,10.07,0,0,0,3.26,2,12.94,12.94,0,0,0,4.46,1.3c3.07.2,5.89-1.5,8.8-2.49,3.92-1.32,8.14-1.36,12.28-1.35s8.34.07,12.31-1.09,7.74-3.73,9.29-7.56a1.85,1.85,0,0,0,.17-1.16,1.92,1.92,0,0,0-.84-1c-5.58-4.13-7.84-9.15-14.12-12.12Z"/><path class="cls-5" d="M804.39,26.72c-1.73.28-3.2,1.45-4.84,2.1a8.3,8.3,0,0,1-6.84-.36,5.19,5.19,0,0,1-1.87-1.52c-1.34-1.86-.87-4.56-.05-6.74C794.67,9.89,805,3.51,815.29,3.1s20.24,4.38,28.33,11.23a38.65,38.65,0,0,1,6.43,6.73c4.22,5.85,6.13,13.32,6.69,20.72a27.07,27.07,0,0,1-.61,9.28,11.3,11.3,0,0,1-5.26,7.09c-2.86,1.46-6.29,1-9.18-.4A38.72,38.72,0,0,1,833.84,52a11.65,11.65,0,0,0-3.91-2.49,4,4,0,0,0-4.23,1c-1.34,1.61-1,4.25-2.22,6s-3.76,2-5.9,2-4.31-.18-5.59-1.88c-1.17-1.54-1-3.79-.56-5.73s1.19-3.86,1-5.85c-.41-4-3.91-6.46-5-10.14-.71-2.41.85-3.43.69-5.61C808,27.41,805.94,26.47,804.39,26.72Z"/><path class="cls-4" d="M895.5,302.54v.25h0c-5.74,11.15-11.59,22.48-20.27,31.55a33.57,33.57,0,0,0-3.73,4.26,41,41,0,0,0-2.4,4.6,29.7,29.7,0,0,1-5.3,7.72l-7.24,3.62,23-120Z"/><path class="cls-4" d="M862.07,120.92a41.77,41.77,0,0,1-6.53,5.72c-6.6,5-13,9.72-19.41,15Q828.38,148,820.41,154a15.44,15.44,0,0,1-1.58-3.88c-.64-3,.24-6,0-9-.24-2.65-1.37-5.13-1.93-7.72a36.69,36.69,0,0,1-.29-10.2c.25-4,1.12-8.13.78-12.08a46.68,46.68,0,0,1,12.61-36l.23-.23a18.48,18.48,0,0,1,3.4-1.52,12.11,12.11,0,0,1,10.58,1.28,72.43,72.43,0,0,1,14.4,14.12A57.2,57.2,0,0,1,864.67,97,21.73,21.73,0,0,1,862.07,120.92Z"/><path class="cls-8" d="M843.25,69.64a12.07,12.07,0,0,0-10.58-1.23,22.94,22.94,0,0,0-9.11,6.07A41.81,41.81,0,0,0,817.13,83c-1.7,3-3,6.14-4.7,9.13-3,5.35-6.92,10.07-10.86,14.75-2.45,2.91-4.93,5.86-8.07,8s-6.65,3.45-8.78,6.42c-.67.94-1.15,2-1.81,3-2.09,3.06-5.64,4.7-8.73,6.75-8.86,5.9-14.37,15.72-22.65,22.41-3.57,2.88-7.6,5.14-11.11,8.08-3.27,2.73-6,6-9.26,8.8s-7.09,5.11-11.34,5.37c2.84,6.33,6.23,12.54,11.1,17.47s12.17,8.08,18.82,6.15c2.36-.68,4.67-2.12,5.57-4.4a18.85,18.85,0,0,1,1.18-3.41,7,7,0,0,1,2.53-2.07,597.08,597.08,0,0,0,76.11-52.73c6.43-5.24,12.81-9.93,19.41-15a41.77,41.77,0,0,0,6.53-5.72,21.73,21.73,0,0,0,2.64-24,57.2,57.2,0,0,0-6.06-8.21A72.43,72.43,0,0,0,843.25,69.64Z"/><g class="cls-9"><path d="M819.58,54.51c-2,0-4.31-.18-5.59-1.88-1.16-1.54-1-3.79-.56-5.73s1.19-3.86,1-5.85c-.41-4-3.91-6.46-5-10.14-.71-2.41.85-3.43.69-5.61-.14-1.89-2.19-2.83-3.74-2.58-1.73.28-3.2,1.45-4.84,2.1a8.3,8.3,0,0,1-6.84-.36,5.19,5.19,0,0,1-1.87-1.52c-1.34-1.86-.87-4.56-.05-6.74,0-.08.07-.15.1-.23a24.15,24.15,0,0,0-2.1,4.23c-.82,2.18-1.29,4.88.05,6.74a5.19,5.19,0,0,0,1.87,1.52,8.3,8.3,0,0,0,6.84.36c1.64-.65,3.11-1.82,4.84-2.1,1.55-.25,3.6.69,3.74,2.58.16,2.18-1.4,3.2-.69,5.61,1.07,3.68,4.57,6.18,5,10.14.2,2-.53,3.92-1,5.85s-.6,4.19.56,5.73c1.28,1.7,3.57,1.86,5.59,1.88s4.62-.12,5.9-2a8.33,8.33,0,0,0,1.07-3.07A8.46,8.46,0,0,1,819.58,54.51Z"/><path d="M852.87,54.15c-2.86,1.46-6.29,1-9.18-.4A38.72,38.72,0,0,1,835.84,48a11.65,11.65,0,0,0-3.91-2.49,4,4,0,0,0-4.23,1,7.59,7.59,0,0,0-1.25,3.36,4.25,4.25,0,0,1,3.48-.37A11.65,11.65,0,0,1,833.84,52a39.46,39.46,0,0,0,7.85,5.72c2.85,1.39,6.32,1.86,9.18.4A11.11,11.11,0,0,0,856,51.41,9.16,9.16,0,0,1,852.87,54.15Z"/></g><circle class="cls-5" cx="604" cy="454.04" r="30"/><circle class="cls-4" cx="604" cy="454.04" r="30"/><circle class="cls-3" cx="604" cy="454.04" r="19"/><circle class="cls-4" cx="604" cy="454.04" r="19"/><path class="cls-5" d="M581,407l19.68,44.5a3.81,3.81,0,0,0,6.93.14L631,404Z"/><path class="cls-4" d="M581,407l19.68,44.5a3.81,3.81,0,0,0,6.93.14L631,404Z"/><circle class="cls-5" cx="417" cy="454.04" r="30"/><circle class="cls-4" cx="417" cy="454.04" r="30"/><circle class="cls-3" cx="417" cy="454.04" r="19"/><circle class="cls-4" cx="417" cy="454.04" r="19"/><path class="cls-5" d="M394,407l19.68,44.5a3.81,3.81,0,0,0,6.93.14L444,404Z"/><path class="cls-4" d="M394,407l19.68,44.5a3.81,3.81,0,0,0,6.93.14L444,404Z"/><path class="cls-5" d="M701.36,192.79a4.57,4.57,0,0,0-2.49-3.58,4.66,4.66,0,0,0-6.1,2.46l-.06.14L675.5,234.54l-5,192h8l3-191.59,19.44-39.26A4.75,4.75,0,0,0,701.36,192.79Z"/><polygon class="cls-8" points="347.5 411.54 374.5 394.54 666 392.04 673.5 411.54 347.5 411.54"/><polygon class="cls-5" points="347.5 429.54 347.5 411.54 678.78 408.34 678.46 420.54 353.5 420.54 353.5 429.54 347.5 429.54"/><circle class="cls-5" cx="389.5" cy="464.54" r="30"/><circle class="cls-3" cx="389.5" cy="464.54" r="19"/><path class="cls-5" d="M366.5,417.54,386.18,462a3.81,3.81,0,0,0,6.93.14l23.39-47.64Z"/><circle class="cls-5" cx="622.5" cy="464.54" r="30"/><circle class="cls-3" cx="622.5" cy="464.54" r="19"/><path class="cls-5" d="M599.5,417.54,619.18,462a3.81,3.81,0,0,0,6.93.14l23.39-47.64Z"/><rect class="cls-3" x="385" y="333.04" width="125" height="69"/><rect class="cls-4" x="429" y="345.04" width="38" height="8"/><rect class="cls-4" x="433.75" y="346.04" width="28.5" height="6"/><rect class="cls-3" x="512" y="333.04" width="125" height="69"/><rect class="cls-4" x="556" y="345.04" width="38" height="8"/><rect class="cls-4" x="560.75" y="346.04" width="28.5" height="6"/><rect class="cls-3" x="385" y="262.04" width="125" height="69"/><rect class="cls-4" x="429" y="274.04" width="38" height="8"/><rect class="cls-4" x="433.75" y="275.04" width="28.5" height="6"/><rect class="cls-3" x="512" y="262.04" width="125" height="69"/><rect class="cls-4" x="556" y="274.04" width="38" height="8"/><rect class="cls-4" x="560.75" y="275.04" width="28.5" height="6"/><rect class="cls-3" x="385" y="190.04" width="125" height="69"/><rect class="cls-4" x="429" y="202.04" width="38" height="8"/><rect class="cls-4" x="433.75" y="203.04" width="28.5" height="6"/><rect class="cls-3" x="512" y="190.04" width="125" height="69"/><rect class="cls-4" x="556" y="202.04" width="38" height="8"/><rect class="cls-4" x="560.75" y="203.04" width="28.5" height="6"/><rect class="cls-3" x="512" y="118.04" width="125" height="69"/><rect class="cls-4" x="556" y="130.04" width="38" height="8"/><rect class="cls-4" x="560.75" y="131.04" width="28.5" height="6"/></g></g></svg>