<svg xmlns="http://www.w3.org/2000/svg" xmlns:xlink="http://www.w3.org/1999/xlink" viewBox="0 0 1049.99 805.83"><defs><style>.cls-1,.cls-10,.cls-3{fill:#e8505b;}.cls-1,.cls-4,.cls-8{opacity:0.1;}.cls-1,.cls-10,.cls-4,.cls-5,.cls-7,.cls-8{isolation:isolate;}.cls-2,.cls-6{fill:none;stroke-miterlimit:10;}.cls-2{stroke:#535461;stroke-width:2px;}.cls-4,.cls-7{fill:#fff;}.cls-10,.cls-5{opacity:0.2;}.cls-6{stroke:#e8505b;}.cls-7{opacity:0.5;}.cls-9{fill:#f0e4e4;}.cls-11{fill:url(#linear-gradient);}.cls-12{fill:#fdb797;}.cls-13{fill:#565171;}.cls-14{fill:#8f5a6a;}.cls-15{fill:#b45181;}.cls-16{opacity:0.7;}.cls-17{fill:url(#linear-gradient-2);}.cls-18{fill:#e0e0e0;}.cls-19{fill:#535461;}.cls-20{fill:url(#linear-gradient-3);}.cls-21{fill:#3e3f49;}</style><linearGradient id="linear-gradient" x1="970.42" y1="128.25" x2="970.42" y2="585.3" gradientTransform="translate(1286.86 758.9) rotate(180)" gradientUnits="userSpaceOnUse"><stop offset="0" stop-color="gray" stop-opacity="0.25"/><stop offset="0.54" stop-color="gray" stop-opacity="0.12"/><stop offset="1" stop-color="gray" stop-opacity="0.1"/></linearGradient><linearGradient id="linear-gradient-2" x1="441.24" y1="0.15" x2="441.24" y2="227.35" gradientTransform="matrix(1, 0, 0, -1, 0, 805.98)" xlink:href="#linear-gradient"/><linearGradient id="linear-gradient-3" x1="467.66" y1="213.22" x2="467.66" y2="415.02" gradientTransform="matrix(1, 0, 0, -1, 0, 805.98)" xlink:href="#linear-gradient"/></defs><title>sign_up</title><g id="Layer_2" data-name="Layer 2"><g id="f505141c-f814-4615-8df2-52dee1c7b14b"><path class="cls-1" d="M60.46,414c35.65,45.33,21.8,111.54-.85,164.58-7.59,17.76-16.16,36.54-13,55.58,3.91,23.28,24.69,40.31,46.51,49.33C132.89,700,180.49,696.06,217,673.32c31.58-19.65,54.2-51.6,86.32-70.35,53.76-31.38,122.18-19.53,180.55,2.09,41.3,15.29,86.45,35.18,127.48,19.2,28.87-11.25,48.83-38.62,59.71-67.64,5.25-14,9.06-29.17,19.09-40.28,6-6.6,13.74-11.29,21.71-15.24,72.77-36.08,164.67-16.76,235.35-56.77,47.73-27,78.29-78,91.82-131.16s12-108.9,8.52-163.64c-2.44-38.91-6.82-80.44-31.68-110.47C989.61,7.3,944.48-4.52,903.69,1.52s-77.77,27.56-110.3,52.9c-40.65,31.68-78.36,71.12-128.27,84-34,8.74-69.75,4-104.81,2.3-58.61-2.77-117.24,3.39-175.53,10.12-55.8,6.45-112,13.55-165.16,31.7-37.61,12.8-67.75,36.12-103.27,52.37C93.2,245.53,68,248.46,46,262,19,278.65-5.74,307.63,1.18,341.54,7.76,373.81,41.54,390,60.46,414Z"/><path class="cls-2" d="M189.79,612.2s-3.3-97.76-56.19-153C111.4,436,96.82,406.58,93,374.72a248.71,248.71,0,0,1-1.24-45.57"/><path class="cls-3" d="M58.59,294.17c3.62,10.92,33.88,36,33.88,36s9.27-38.21,5.65-49.12a20.82,20.82,0,0,0-39.53,13.11Z"/><path class="cls-3" d="M46,365.46c9,7.2,48,11.82,48,11.82S81,340.17,72,333a20.82,20.82,0,0,0-26,32.48Z"/><path class="cls-3" d="M81.66,468.31c11.38,1.68,47.41-14,47.41-14s-29.94-25.48-41.32-27.16a20.82,20.82,0,1,0-6.09,41.2h0Z"/><path class="cls-3" d="M126.18,540.05c10.93,3.58,49.1-5.82,49.1-5.82s-25.21-30.17-36.14-33.75a20.83,20.83,0,1,0-13,39.57Z"/><path class="cls-3" d="M136.18,365.63C130.87,375.83,97,395.81,97,395.81s-3.08-39.19,2.23-49.4a20.82,20.82,0,1,1,36.94,19.22Z"/><path class="cls-3" d="M187.19,450.19c-8.12,8.15-46.4,17.07-46.4,17.07s8.79-38.32,16.9-46.47a20.82,20.82,0,0,1,29.5,29.39h0Z"/><path class="cls-3" d="M225.49,539.18c-6.62,9.4-42.85,24.67-42.85,24.67s2.18-39.25,8.81-48.66a20.82,20.82,0,1,1,34.79,22.88c-.25.38-.52.76-.79,1.12Z"/><path class="cls-3" d="M654.57,545.82s-15.88-5.38-23.52,8.61a25.51,25.51,0,0,0,.34,24.57c5,9.07,15.36,20.85,35,19.8,16.62-.89,22.1-13.57,23.62-25.37a26.06,26.06,0,0,0-34.61-27.9Z"/><path class="cls-4" d="M634.75,580.26a25.51,25.51,0,0,1-.34-24.57c7.64-14,23.52-8.61,23.52-8.61l.81-.29a25.84,25.84,0,0,1,18.66.42,25.84,25.84,0,0,0-22-2.1l-.81.29S638.71,540,631.07,554a25.51,25.51,0,0,0,.34,24.57c3.31,6,8.92,13.11,18,17A39.32,39.32,0,0,1,634.75,580.26Z"/><path class="cls-5" d="M646.37,552.55s5.89,4.63,20.18,0"/><path class="cls-3" d="M645.11,518.91s10.09,27.33,9.25,34.48l8-.84s-13.46-24-10.09-33.64Z"/><path class="cls-5" d="M645.11,518.91s10.09,27.33,9.25,34.48l8-.84s-13.46-24-10.09-33.64Z"/><path class="cls-3" d="M686.3,521.19s-15.88-8.12-23-1.41-8.2,23.86-8.2,23.86S681,547.2,686.3,521.19Z"/><path class="cls-4" d="M686.3,521.19s-15.88-8.12-23-1.41-8.2,23.86-8.2,23.86S681,547.2,686.3,521.19Z"/><path class="cls-6" d="M655.11,543.64s4.17-19.91,31.19-22.45"/><path class="cls-2" d="M198.64,424.5s3.24-52.86-22.43-85.34a80.13,80.13,0,0,1-17.57-47.62,133.65,133.65,0,0,1,1.68-24.63"/><path class="cls-3" d="M144.27,246.35c1.39,6.07,16.41,21.15,16.41,21.15s7-20.12,5.57-26.18a11.28,11.28,0,0,0-22,5Z"/><path class="cls-3" d="M133.81,284.13c4.47,4.34,25.27,8.84,25.27,8.84s-5.09-20.67-9.56-25a11.27,11.27,0,0,0-15.71,16.17Z"/><path class="cls-3" d="M147.76,341.4c6,1.49,26.27-5.13,26.27-5.13S159.2,321,153.16,319.51a11.27,11.27,0,1,0-5.4,21.89Z"/><path class="cls-3" d="M168.07,382.34c5.71,2.49,26.76-.62,26.76-.62s-12-17.56-17.74-20a11.27,11.27,0,0,0-9.43,20.48l.43.18Z"/><path class="cls-3" d="M182.42,288.86c-3.38,5.23-22.66,14.25-22.66,14.25s.35-21.28,3.74-26.51a11.27,11.27,0,0,1,18.92,12.26Z"/><path class="cls-3" d="M205.57,337.05c-4.79,4-25.89,6.82-25.89,6.82s6.7-20.2,11.5-24.18a11.27,11.27,0,0,1,14.39,17.36Z"/><path class="cls-3" d="M221.64,387c-4,4.73-24.36,11.1-24.36,11.1s3.19-21,7.25-25.77A11.28,11.28,0,0,1,221.65,387Z"/><path class="cls-7" d="M144.27,246.35c1.39,6.07,16.41,21.15,16.41,21.15s7-20.12,5.57-26.18a11.28,11.28,0,0,0-22,5Z"/><path class="cls-7" d="M133.81,284.13c4.47,4.34,25.27,8.84,25.27,8.84s-5.09-20.67-9.56-25a11.27,11.27,0,0,0-15.71,16.17Z"/><path class="cls-7" d="M147.76,341.4c6,1.49,26.27-5.13,26.27-5.13S159.2,321,153.16,319.51a11.27,11.27,0,1,0-5.4,21.89Z"/><path class="cls-7" d="M168.07,382.34c5.71,2.49,26.76-.62,26.76-.62s-12-17.56-17.74-20a11.27,11.27,0,0,0-9.43,20.48l.43.18Z"/><path class="cls-7" d="M182.42,288.86c-3.38,5.23-22.66,14.25-22.66,14.25s.35-21.28,3.74-26.51a11.27,11.27,0,0,1,18.92,12.26Z"/><path class="cls-7" d="M205.57,337.05c-4.79,4-25.89,6.82-25.89,6.82s6.7-20.2,11.5-24.18a11.27,11.27,0,0,1,14.39,17.36Z"/><path class="cls-7" d="M221.64,387c-4,4.73-24.36,11.1-24.36,11.1s3.19-21,7.25-25.77A11.28,11.28,0,0,1,221.65,387Z"/><path class="cls-8" d="M842.39,227.58a.8.8,0,0,0,.57,0,1.16,1.16,0,0,1,.69,0"/><path class="cls-9" d="M846.39,232.56h.81l.7.07h-.25Z"/><path class="cls-9" d="M846.39,232.73h.81l.7.07h-.25Z"/><path class="cls-9" d="M846.39,232.91h.81l.7.07h-.25Z"/><path class="cls-9" d="M846,242.29h.81l.7.07h-.25Z"/><path class="cls-9" d="M846,242.45h.81l.7.07h-.25Z"/><path class="cls-9" d="M846,242.62h.81l.7.07h-.25Z"/><path class="cls-10" d="M392.39,694.67H312.85V649.86h79.54Zm-76.18-3.36H389V653.22h-72.8Z"/><path class="cls-11" d="M259.91,627.49c5,2.92,10.27,4.11,15.72,2.3a24,24,0,0,0,4.09-1.81c51,1.08,98.23.58,100.06-4.91,3-9.1-16-53.92-25.59-75.58a24.4,24.4,0,0,0,7-7.31c13.32,15.23,38.1,34.88,52.83,35.86,0,0,21.5,51.07,45.69,43S486.59,568,474.49,562.6l-80.63-51.07V426.79a31.75,31.75,0,0,0,3.37-15.7c0-1,0-2,0-3l-2.69-24.19s-.14-.8-.51-2.25c-6-23.31-19.37-39-38.22-41.33a13.93,13.93,0,0,0,1.64-5.43c.39-4.52-1.49-9.13-.43-13.54,1.24-5.14,6-8.46,9.91-12,8.35-7.64,13.61-18,18.69-28.11,4.84-9.63,9.75-19.51,11-30.21s-2-22.58-10.75-28.88c-6.8-4.91-16.37-6.2-21.26-13-2.19-3.06-3.1-6.83-4.61-10.27-4.35-9.91-13.73-16.94-23.91-20.61-35.72-12.86-79.54,1.9-102.33,31.56-7.44,9.68-12.81,20.76-18.12,31.75l-19.2,39.69c-3.31,6.83-6.51,15.36-2.09,21.53,2.16,3,5.86,4.86,7.36,8.25,2,4.5-.5,10.39,2.44,14.35,1.62,2.19,4.43,3.06,6.84,4.34a26.88,26.88,0,0,1,8.27,7.33L177.1,369.74a28.35,28.35,0,0,0-10.86,19.61l-4.17,41.56a50.47,50.47,0,0,0-1.88,14.51c-.15,4.38.36,9.21,2.55,13l.92-.22c1,29.15,2.74,71.09,4.46,78.84,1,4.6,7.31,12.71,15.81,21.07l-3,8.5h1l-1,2.67h2C174.45,599.92,151.38,623,151.38,623S204.73,625.91,259.91,627.49ZM209.77,485.91V453.24c4.92.76,8.55,2.46,9.71,5.56ZM224,343.73l.16.24h-.06Z"/><path class="cls-12" d="M345.32,417.91s2.55,90.62,5.11,102.11,39.58,46,58.71,47.27c0,0,20.42,48.5,43.4,40.84s25.53-48.5,14-53.61L390,506V409Z"/><path class="cls-13" d="M347.24,529s33.19,71.48,29.36,83-217,0-217,0,39.57-39.57,31.91-83Z"/><path class="cls-12" d="M321.71,317.12s-5.11,49.78,3.83,61.27S289.8,396.25,286,396.25s-44.67-14-52.33-17.87-14-31.91-14-31.91,38.29,7.66,49.78-37Z"/><path class="cls-14" d="M335.09,189.43c9.67,3.48,18.58,10.16,22.71,19.57,1.44,3.27,2.3,6.85,4.38,9.76,4.64,6.48,13.73,7.7,20.19,12.37,8.29,6,11.36,17.27,10.21,27.43s-5.82,19.55-10.41,28.69c-4.83,9.61-9.82,19.44-17.75,26.7-3.7,3.39-8.24,6.54-9.42,11.42-1,4.19.78,8.56.4,12.86-.92,10.61-13.6,15.55-24.19,16.73-4.6.51-9.87.54-13.11-2.77-1.66-1.7-2.49-4-3.55-6.14a29.43,29.43,0,0,0-52.49-.54c-2.48,4.78-3.93,10.57-8.45,13.49-6.92,4.47-16.17-.78-21.26-7.24s-8.8-14.58-16.07-18.45c-2.29-1.22-5-2-6.49-4.12-2.79-3.76-.42-9.35-2.31-13.63-1.43-3.22-4.94-5-7-7.84-4.2-5.86-1.16-14,2-20.45l18.24-37.7c5-10.44,10.15-21,17.21-30.16C259.54,191.23,301.16,177.21,335.09,189.43Z"/><path class="cls-8" d="M288.53,387.32s-49.78,0-62.54-45.95l-41.9,32.47a27,27,0,0,0-10.31,18.63l-4,39.53s-4.47,14.68.64,23.61c0,0,53-13.4,54.25,1.91l-37,103.39s57.44,1.28,72.75-8.93c0,0,62.54,12.76,77.86-1.28s30.63-12.76,17.87-44.67c0,0,25.53-25.53,14-61.27s-.64.64-.64.64,24.89-12.13,23.61-35.1l-2.55-23s-.14-.76-.49-2.13c-7.78-30.28-28.69-47-58.08-36.34-8.59,3.11-17.37-.45-17.37-.45S324.26,389.91,288.53,387.32Z"/><path class="cls-15" d="M288.53,384.77s-49.78,0-62.54-45.95l-41.9,32.47a27,27,0,0,0-10.31,18.62l-4,39.53s-4.47,14.68.64,23.61c0,0,53-13.4,54.25,1.91l-37,103.39s57.44,1.28,72.75-8.93c0,0,62.54,12.76,77.86-1.28s30.63-12.76,17.87-44.67c0,0,25.53-25.53,14-61.27s-.64.64-.64.64,24.89-12.13,23.61-35.1l-2.55-23s-.14-.76-.49-2.13c-7.78-30.28-28.69-47-58.08-36.34-8.59,3.11-17.37-.45-17.37-.45S324.26,387.32,288.53,384.77Z"/><path class="cls-12" d="M170.46,428.16s2.55,90.62,5.11,102.11,39.57,46,58.71,47.23c0,0,20.42,48.5,43.4,40.84s25.53-48.5,14-53.61l-76.58-48.5v-97Z"/><path class="cls-8" d="M225.34,431.35S196,451.27,170.46,449.61c0,0-2.55-34.21,5.11-36.12S216.41,413.49,225.34,431.35Z"/><path class="cls-15" d="M225.34,430.08S196,450,170.46,448.33c0,0-2.55-34.21,5.11-36.12S216.41,412.21,225.34,430.08Z"/><path class="cls-8" d="M266.83,312l52.33,7.66s-1.18,11.52-1.41,24.75a58.72,58.72,0,0,1-61.59-10C260.54,329,264.32,321.76,266.83,312Z"/><circle class="cls-12" cx="297.46" cy="287.76" r="58.71"/><path class="cls-8" d="M282,276.48c2.42,1.12,5.18,1.14,7.85,1.12q15.57-.09,31.13-1.15c7.86-.53,16.24-1.45,22.3-6.48,8.16-6.77,9.45-19.46,5.24-29.19s-12.8-16.9-21.87-22.38a65.82,65.82,0,0,0-16.52-7.49c-16.83-4.57-35.44,1-48.81,12.25s-21.89,27.38-26.4,44.23c-1.56,5.83-3.56,12.77-9.33,14.54,3.84,6.39,13.21,7.4,20,4.2,9.92-4.72,15-22.78,23.91-25.62C279.37,257.38,273.59,272.62,282,276.48Z"/><path class="cls-14" d="M282,275.2c2.42,1.12,5.18,1.14,7.85,1.12q15.57-.09,31.13-1.15c7.86-.53,16.24-1.45,22.3-6.48,8.16-6.77,9.45-19.46,5.24-29.19s-12.8-16.9-21.87-22.38a65.47,65.47,0,0,0-16.49-7.44c-16.83-4.57-35.44,1-48.81,12.25s-21.89,27.38-26.4,44.23c-1.56,5.83-3.56,12.77-9.33,14.54,3.84,6.39,13.21,7.4,20,4.2,9.92-4.72,15-22.78,23.91-25.62C279.37,256.11,273.59,271.34,282,275.2Z"/><path class="cls-8" d="M356.81,502.83a226.4,226.4,0,0,0-58.71-7.66"/><path class="cls-8" d="M225.34,433.91s19.15,14,14,21.7"/><g class="cls-16"><polygon class="cls-17" points="754.59 578.63 127.89 578.63 127.89 633.42 164.37 633.42 164.37 644.12 164.37 805.83 719.4 805.83 719.4 644.12 719.4 633.42 754.59 633.42 754.59 578.63"/></g><rect class="cls-18" x="170.01" y="610.54" width="543.73" height="195.29"/><rect class="cls-8" x="170.01" y="620.75" width="543.73" height="30.63"/><rect class="cls-18" x="134.27" y="588.84" width="613.94" height="52.33"/><rect class="cls-19" x="250.27" y="575.96" width="117.43" height="16.59" rx="6.5"/><g class="cls-16"><rect class="cls-20" x="321.74" y="390.96" width="291.85" height="201.8" rx="28.22"/></g><rect class="cls-21" x="326.95" y="394.69" width="276.47" height="198.07" rx="26.84"/><rect class="cls-19" x="330.78" y="394.69" width="276.47" height="198.07" rx="26.84"/><circle class="cls-18" cx="481.93" cy="492.36" r="8.93"/></g></g></svg>